<?xml version="1.0" encoding="UTF-8" standalone="no"?>
<!DOCTYPE svg PUBLIC "-//W3C//DTD SVG 1.1//EN"
 "http://www.w3.org/Graphics/SVG/1.1/DTD/svg11.dtd">
<!-- Generated by graphviz version 11.0.0 (20240428.1522)
 -->
<!-- Title: C:/Users/harshn/Desktop/VoronoiGrowthSimulator/MTEngine/MTEngine.hpp Pages: 1 -->
<svg width="496pt" height="212pt"
 viewBox="0.00 0.00 495.62 212.00" xmlns="http://www.w3.org/2000/svg" xmlns:xlink="http://www.w3.org/1999/xlink">
<g id="graph0" class="graph" transform="scale(1 1) rotate(0) translate(4 208)">
<title>C:/Users/harshn/Desktop/VoronoiGrowthSimulator/MTEngine/MTEngine.hpp</title>
<!-- Node1 -->
<g id="Node000001" class="node">
<title>Node1</title>
<g id="a_Node000001"><a xlink:title=" ">
<polygon fill="#999999" stroke="#666666" points="272.75,-204 145,-204 145,-160 272.75,-160 272.75,-204"/>
<text text-anchor="start" x="153" y="-190.5" font-family="Helvetica,sans-Serif" font-size="10.00">C:/Users/harshn/Desktop</text>
<text text-anchor="start" x="153" y="-178.5" font-family="Helvetica,sans-Serif" font-size="10.00">/VoronoiGrowthSimulator</text>
<text text-anchor="middle" x="208.88" y="-166.5" font-family="Helvetica,sans-Serif" font-size="10.00">/MTEngine/MTEngine.hpp</text>
</a>
</g>
</g>
<!-- Node2 -->
<g id="Node000002" class="node">
<title>Node2</title>
<g id="a_Node000002"><a xlink:href="_m_t_engine_8cpp.html" target="_top" xlink:title=" ">
<polygon fill="white" stroke="#666666" points="127.75,-124 0,-124 0,-80 127.75,-80 127.75,-124"/>
<text text-anchor="start" x="8" y="-110.5" font-family="Helvetica,sans-Serif" font-size="10.00">C:/Users/harshn/Desktop</text>
<text text-anchor="start" x="8" y="-98.5" font-family="Helvetica,sans-Serif" font-size="10.00">/VoronoiGrowthSimulator</text>
<text text-anchor="middle" x="63.88" y="-86.5" font-family="Helvetica,sans-Serif" font-size="10.00">/MTEngine/MTEngine.cpp</text>
</a>
</g>
</g>
<!-- Node1&#45;&gt;Node2 -->
<g id="edge1_Node000001_Node000002" class="edge">
<title>Node1&#45;&gt;Node2</title>
<g id="a_edge1_Node000001_Node000002"><a xlink:title=" ">
<path fill="none" stroke="#63b8ff" d="M159.16,-154.26C141.05,-144.52 120.84,-133.64 103.7,-124.42"/>
<polygon fill="#63b8ff" stroke="#63b8ff" points="157.46,-157.31 167.92,-158.97 160.77,-151.15 157.46,-157.31"/>
</a>
</g>
</g>
<!-- Node3 -->
<g id="Node000003" class="node">
<title>Node3</title>
<g id="a_Node000003"><a xlink:href="_m_t_engine_2example_8cpp.html" target="_top" xlink:title=" ">
<polygon fill="white" stroke="#666666" points="271.62,-124 146.12,-124 146.12,-80 271.62,-80 271.62,-124"/>
<text text-anchor="start" x="154.12" y="-110.5" font-family="Helvetica,sans-Serif" font-size="10.00">C:/Users/harshn/Desktop</text>
<text text-anchor="start" x="154.12" y="-98.5" font-family="Helvetica,sans-Serif" font-size="10.00">/VoronoiGrowthSimulator</text>
<text text-anchor="middle" x="208.88" y="-86.5" font-family="Helvetica,sans-Serif" font-size="10.00">/MTEngine/example.cpp</text>
</a>
</g>
</g>
<!-- Node1&#45;&gt;Node3 -->
<g id="edge2_Node000001_Node000003" class="edge">
<title>Node1&#45;&gt;Node3</title>
<g id="a_edge2_Node000001_Node000003"><a xlink:title=" ">
<path fill="none" stroke="#63b8ff" d="M208.88,-148.25C208.88,-140.15 208.88,-131.68 208.88,-124.29"/>
<polygon fill="#63b8ff" stroke="#63b8ff" points="205.38,-148.17 208.88,-158.17 212.38,-148.17 205.38,-148.17"/>
</a>
</g>
</g>
<!-- Node4 -->
<g id="Node000004" class="node">
<title>Node4</title>
<g id="a_Node000004"><a xlink:href="_voronoi_8hpp.html" target="_top" xlink:title=" ">
<polygon fill="white" stroke="#666666" points="415.62,-124 290.12,-124 290.12,-80 415.62,-80 415.62,-124"/>
<text text-anchor="start" x="298.12" y="-110.5" font-family="Helvetica,sans-Serif" font-size="10.00">C:/Users/harshn/Desktop</text>
<text text-anchor="start" x="298.12" y="-98.5" font-family="Helvetica,sans-Serif" font-size="10.00">/VoronoiGrowthSimulator</text>
<text text-anchor="middle" x="352.88" y="-86.5" font-family="Helvetica,sans-Serif" font-size="10.00">/Voronoi.hpp</text>
</a>
</g>
</g>
<!-- Node1&#45;&gt;Node4 -->
<g id="edge3_Node000001_Node000004" class="edge">
<title>Node1&#45;&gt;Node4</title>
<g id="a_edge3_Node000001_Node000004"><a xlink:title=" ">
<path fill="none" stroke="#63b8ff" d="M258.25,-154.26C276.23,-144.52 296.31,-133.64 313.32,-124.42"/>
<polygon fill="#63b8ff" stroke="#63b8ff" points="256.68,-151.12 249.55,-158.97 260.01,-157.28 256.68,-151.12"/>
</a>
</g>
</g>
<!-- Node5 -->
<g id="Node000005" class="node">
<title>Node5</title>
<g id="a_Node000005"><a xlink:href="_voronoi_8cpp.html" target="_top" xlink:title=" ">
<polygon fill="white" stroke="#666666" points="343.62,-44 218.12,-44 218.12,0 343.62,0 343.62,-44"/>
<text text-anchor="start" x="226.12" y="-30.5" font-family="Helvetica,sans-Serif" font-size="10.00">C:/Users/harshn/Desktop</text>
<text text-anchor="start" x="226.12" y="-18.5" font-family="Helvetica,sans-Serif" font-size="10.00">/VoronoiGrowthSimulator</text>
<text text-anchor="middle" x="280.88" y="-6.5" font-family="Helvetica,sans-Serif" font-size="10.00">/Voronoi.cpp</text>
</a>
</g>
</g>
<!-- Node4&#45;&gt;Node5 -->
<g id="edge4_Node000004_Node000005" class="edge">
<title>Node4&#45;&gt;Node5</title>
<g id="a_edge4_Node000004_Node000005"><a xlink:title=" ">
<path fill="none" stroke="#63b8ff" d="M325.49,-71.34C317.18,-62.33 308.22,-52.63 300.53,-44.29"/>
<polygon fill="#63b8ff" stroke="#63b8ff" points="322.82,-73.6 332.17,-78.57 327.96,-68.85 322.82,-73.6"/>
</a>
</g>
</g>
<!-- Node6 -->
<g id="Node000006" class="node">
<title>Node6</title>
<g id="a_Node000006"><a xlink:href="example_8cpp.html" target="_top" xlink:title=" ">
<polygon fill="white" stroke="#666666" points="487.62,-44 362.12,-44 362.12,0 487.62,0 487.62,-44"/>
<text text-anchor="start" x="370.12" y="-30.5" font-family="Helvetica,sans-Serif" font-size="10.00">C:/Users/harshn/Desktop</text>
<text text-anchor="start" x="370.12" y="-18.5" font-family="Helvetica,sans-Serif" font-size="10.00">/VoronoiGrowthSimulator</text>
<text text-anchor="middle" x="424.88" y="-6.5" font-family="Helvetica,sans-Serif" font-size="10.00">/example.cpp</text>
</a>
</g>
</g>
<!-- Node4&#45;&gt;Node6 -->
<g id="edge5_Node000004_Node000006" class="edge">
<title>Node4&#45;&gt;Node6</title>
<g id="a_edge5_Node000004_Node000006"><a xlink:title=" ">
<path fill="none" stroke="#63b8ff" d="M380.26,-71.34C388.57,-62.33 397.53,-52.63 405.22,-44.29"/>
<polygon fill="#63b8ff" stroke="#63b8ff" points="377.79,-68.85 373.58,-78.57 382.93,-73.6 377.79,-68.85"/>
</a>
</g>
</g>
</g>
</svg>
