<?xml version="1.0" encoding="UTF-8" standalone="no"?>
<!DOCTYPE svg PUBLIC "-//W3C//DTD SVG 1.1//EN"
 "http://www.w3.org/Graphics/SVG/1.1/DTD/svg11.dtd">
<!-- Generated by graphviz version 11.0.0 (20240428.1522)
 -->
<!-- Title: main Pages: 1 -->
<svg width="297pt" height="142pt"
 viewBox="0.00 0.00 296.75 142.00" xmlns="http://www.w3.org/2000/svg" xmlns:xlink="http://www.w3.org/1999/xlink">
<g id="graph0" class="graph" transform="scale(1 1) rotate(0) translate(4 138)">
<title>main</title>
<!-- Node1 -->
<g id="Node000001" class="node">
<title>Node1</title>
<g id="a_Node000001"><a xlink:title=" ">
<polygon fill="#999999" stroke="#666666" points="37,-77 0,-77 0,-57 37,-57 37,-77"/>
<text text-anchor="middle" x="18.5" y="-63.5" font-family="Helvetica,sans-Serif" font-size="10.00">main</text>
</a>
</g>
</g>
<!-- Node2 -->
<g id="Node000002" class="node">
<title>Node2</title>
<g id="a_Node000002"><a xlink:href="class_m_t_engine.html#a90e46a58f11c4f984fa34b9d972b75d1" target="_top" xlink:title=" ">
<polygon fill="white" stroke="#666666" points="167.75,-134 73.75,-134 73.75,-114 167.75,-114 167.75,-134"/>
<text text-anchor="middle" x="120.75" y="-120.5" font-family="Helvetica,sans-Serif" font-size="10.00">MTEngine::choice</text>
</a>
</g>
</g>
<!-- Node1&#45;&gt;Node2 -->
<g id="edge1_Node000001_Node000002" class="edge">
<title>Node1&#45;&gt;Node2</title>
<g id="a_edge1_Node000001_Node000002"><a xlink:title=" ">
<path fill="none" stroke="#63b8ff" d="M35.69,-77.45C46.2,-84.11 60.26,-92.82 73,-100 78.04,-102.84 83.44,-105.75 88.73,-108.51"/>
<polygon fill="#63b8ff" stroke="#63b8ff" points="86.78,-111.44 97.27,-112.9 89.98,-105.22 86.78,-111.44"/>
</a>
</g>
</g>
<!-- Node3 -->
<g id="Node000003" class="node">
<title>Node3</title>
<g id="a_Node000003"><a xlink:href="class_m_t_engine.html#abf13506763be69dc291d10ac8d0936c5" target="_top" xlink:title=" ">
<polygon fill="white" stroke="#666666" points="288.75,-96 204.5,-96 204.5,-76 288.75,-76 288.75,-96"/>
<text text-anchor="middle" x="246.62" y="-82.5" font-family="Helvetica,sans-Serif" font-size="10.00">MTEngine::rand</text>
</a>
</g>
</g>
<!-- Node1&#45;&gt;Node3 -->
<g id="edge5_Node000001_Node000003" class="edge">
<title>Node1&#45;&gt;Node3</title>
<g id="a_edge5_Node000001_Node000003"><a xlink:title=" ">
<path fill="none" stroke="#63b8ff" d="M37.24,-68.49C70.37,-71.27 142.82,-77.36 192.91,-81.57"/>
<polygon fill="#63b8ff" stroke="#63b8ff" points="192.41,-85.04 202.67,-82.39 192.99,-78.07 192.41,-85.04"/>
</a>
</g>
</g>
<!-- Node4 -->
<g id="Node000004" class="node">
<title>Node4</title>
<g id="a_Node000004"><a xlink:href="class_m_t_engine.html#a343114470d9218e0d3b7a4adef73a542" target="_top" xlink:title=" ">
<polygon fill="white" stroke="#666666" points="168.5,-58 73,-58 73,-38 168.5,-38 168.5,-58"/>
<text text-anchor="middle" x="120.75" y="-44.5" font-family="Helvetica,sans-Serif" font-size="10.00">MTEngine::Choice</text>
</a>
</g>
</g>
<!-- Node1&#45;&gt;Node4 -->
<g id="edge3_Node000001_Node000004" class="edge">
<title>Node1&#45;&gt;Node4</title>
<g id="a_edge3_Node000001_Node000004"><a xlink:title=" ">
<path fill="none" stroke="#63b8ff" d="M37.42,-63.6C44.39,-62.28 52.8,-60.69 61.55,-59.03"/>
<polygon fill="#63b8ff" stroke="#63b8ff" points="62.07,-62.5 71.24,-57.19 60.76,-55.62 62.07,-62.5"/>
</a>
</g>
</g>
<!-- Node5 -->
<g id="Node000005" class="node">
<title>Node5</title>
<g id="a_Node000005"><a xlink:href="class_m_t_engine.html#a7e5bc79070625240c2c64bfbe80b0dd9" target="_top" xlink:title=" ">
<polygon fill="white" stroke="#666666" points="168.12,-20 73.38,-20 73.38,0 168.12,0 168.12,-20"/>
<text text-anchor="middle" x="120.75" y="-6.5" font-family="Helvetica,sans-Serif" font-size="10.00">MTEngine::Shuffle</text>
</a>
</g>
</g>
<!-- Node1&#45;&gt;Node5 -->
<g id="edge6_Node000001_Node000005" class="edge">
<title>Node1&#45;&gt;Node5</title>
<g id="a_edge6_Node000001_Node000005"><a xlink:title=" ">
<path fill="none" stroke="#63b8ff" d="M32.14,-56.75C42.65,-48.54 58.22,-37.11 73,-29 75.49,-27.64 78.09,-26.31 80.75,-25.04"/>
<polygon fill="#63b8ff" stroke="#63b8ff" points="81.99,-28.32 89.7,-21.04 79.14,-21.93 81.99,-28.32"/>
</a>
</g>
</g>
<!-- Node2&#45;&gt;Node3 -->
<g id="edge2_Node000002_Node000003" class="edge">
<title>Node2&#45;&gt;Node3</title>
<g id="a_edge2_Node000002_Node000003"><a xlink:title=" ">
<path fill="none" stroke="#63b8ff" d="M155.93,-113.52C169.74,-109.28 185.87,-104.33 200.61,-99.81"/>
<polygon fill="#63b8ff" stroke="#63b8ff" points="201.58,-103.17 210.11,-96.89 199.53,-96.48 201.58,-103.17"/>
</a>
</g>
</g>
<!-- Node4&#45;&gt;Node3 -->
<g id="edge4_Node000004_Node000003" class="edge">
<title>Node4&#45;&gt;Node3</title>
<g id="a_edge4_Node000004_Node000003"><a xlink:title=" ">
<path fill="none" stroke="#63b8ff" d="M155.93,-58.48C169.74,-62.72 185.87,-67.67 200.61,-72.19"/>
<polygon fill="#63b8ff" stroke="#63b8ff" points="199.53,-75.52 210.11,-75.11 201.58,-68.83 199.53,-75.52"/>
</a>
</g>
</g>
</g>
</svg>
