<?xml version="1.0" encoding="UTF-8" standalone="no"?>
<!DOCTYPE svg PUBLIC "-//W3C//DTD SVG 1.1//EN"
 "http://www.w3.org/Graphics/SVG/1.1/DTD/svg11.dtd">
<!-- Generated by graphviz version 11.0.0 (20240428.1522)
 -->
<!-- Title: C:/Users/harshn/Desktop/VoronoiGrowthSimulator/MTEngine/example.cpp Pages: 1 -->
<svg width="596pt" height="164pt"
 viewBox="0.00 0.00 596.25 164.00" xmlns="http://www.w3.org/2000/svg" xmlns:xlink="http://www.w3.org/1999/xlink">
<g id="graph0" class="graph" transform="scale(1 1) rotate(0) translate(4 160)">
<title>C:/Users/harshn/Desktop/VoronoiGrowthSimulator/MTEngine/example.cpp</title>
<!-- Node1 -->
<g id="Node000001" class="node">
<title>Node1</title>
<g id="a_Node000001"><a xlink:title=" ">
<polygon fill="#999999" stroke="#666666" points="402.88,-156 277.38,-156 277.38,-112 402.88,-112 402.88,-156"/>
<text text-anchor="start" x="285.38" y="-142.5" font-family="Helvetica,sans-Serif" font-size="10.00">C:/Users/harshn/Desktop</text>
<text text-anchor="start" x="285.38" y="-130.5" font-family="Helvetica,sans-Serif" font-size="10.00">/VoronoiGrowthSimulator</text>
<text text-anchor="middle" x="340.12" y="-118.5" font-family="Helvetica,sans-Serif" font-size="10.00">/MTEngine/example.cpp</text>
</a>
</g>
</g>
<!-- Node2 -->
<g id="Node000002" class="node">
<title>Node2</title>
<g id="a_Node000002"><a xlink:href="_m_t_engine_8hpp.html" target="_top" xlink:title=" ">
<polygon fill="white" stroke="#666666" points="290.25,-76 212,-76 212,-56 290.25,-56 290.25,-76"/>
<text text-anchor="middle" x="251.12" y="-62.5" font-family="Helvetica,sans-Serif" font-size="10.00">MTEngine.hpp</text>
</a>
</g>
</g>
<!-- Node1&#45;&gt;Node2 -->
<g id="edge1_Node000001_Node000002" class="edge">
<title>Node1&#45;&gt;Node2</title>
<g id="a_edge1_Node000001_Node000002"><a xlink:title=" ">
<path fill="none" stroke="#63b8ff" d="M311.47,-111.75C298.93,-102.45 284.45,-91.71 272.82,-83.09"/>
<polygon fill="#63b8ff" stroke="#63b8ff" points="275.16,-80.47 265.04,-77.32 270.99,-86.09 275.16,-80.47"/>
</a>
</g>
</g>
<!-- Node5 -->
<g id="Node000005" class="node">
<title>Node5</title>
<g id="a_Node000005"><a xlink:title=" ">
<polygon fill="#e0e0e0" stroke="#999999" points="463.88,-20 422.38,-20 422.38,0 463.88,0 463.88,-20"/>
<text text-anchor="middle" x="443.12" y="-6.5" font-family="Helvetica,sans-Serif" font-size="10.00">vector</text>
</a>
</g>
</g>
<!-- Node1&#45;&gt;Node5 -->
<g id="edge14_Node000001_Node000005" class="edge">
<title>Node1&#45;&gt;Node5</title>
<g id="a_edge14_Node000001_Node000005"><a xlink:title=" ">
<path fill="none" stroke="#63b8ff" d="M347.27,-111.7C353.55,-95.21 363.91,-72.48 378.12,-56 388.35,-44.15 402.37,-33.92 414.77,-26.23"/>
<polygon fill="#63b8ff" stroke="#63b8ff" points="416.55,-29.24 423.38,-21.15 412.99,-23.21 416.55,-29.24"/>
</a>
</g>
</g>
<!-- Node8 -->
<g id="Node000008" class="node">
<title>Node8</title>
<g id="a_Node000008"><a xlink:title=" ">
<polygon fill="#e0e0e0" stroke="#999999" points="347.88,-20 294.38,-20 294.38,0 347.88,0 347.88,-20"/>
<text text-anchor="middle" x="321.12" y="-6.5" font-family="Helvetica,sans-Serif" font-size="10.00">iostream</text>
</a>
</g>
</g>
<!-- Node1&#45;&gt;Node8 -->
<g id="edge15_Node000001_Node000008" class="edge">
<title>Node1&#45;&gt;Node8</title>
<g id="a_edge15_Node000001_Node000008"><a xlink:title=" ">
<path fill="none" stroke="#63b8ff" d="M336.82,-111.75C333.3,-89.16 327.77,-53.69 324.31,-31.42"/>
<polygon fill="#63b8ff" stroke="#63b8ff" points="327.8,-31.14 322.81,-21.8 320.89,-32.22 327.8,-31.14"/>
</a>
</g>
</g>
<!-- Node10 -->
<g id="Node000010" class="node">
<title>Node10</title>
<g id="a_Node000010"><a xlink:href="_print_utils_8hpp.html" target="_top" xlink:title="Contains utility functions for printing vectors and matrices.">
<polygon fill="white" stroke="#666666" points="504.75,-76 387.5,-76 387.5,-56 504.75,-56 504.75,-76"/>
<text text-anchor="middle" x="446.12" y="-62.5" font-family="Helvetica,sans-Serif" font-size="10.00">PrintUtils/PrintUtils.hpp</text>
</a>
</g>
</g>
<!-- Node1&#45;&gt;Node10 -->
<g id="edge9_Node000001_Node000010" class="edge">
<title>Node1&#45;&gt;Node10</title>
<g id="a_edge9_Node000001_Node000010"><a xlink:title=" ">
<path fill="none" stroke="#63b8ff" d="M374.54,-111.57C389.91,-102 407.67,-90.94 421.66,-82.24"/>
<polygon fill="#63b8ff" stroke="#63b8ff" points="423.16,-85.42 429.8,-77.17 419.46,-79.48 423.16,-85.42"/>
</a>
</g>
</g>
<!-- Node3 -->
<g id="Node000003" class="node">
<title>Node3</title>
<g id="a_Node000003"><a xlink:title=" ">
<polygon fill="#e0e0e0" stroke="#999999" points="276,-20 220.25,-20 220.25,0 276,0 276,-20"/>
<text text-anchor="middle" x="248.12" y="-6.5" font-family="Helvetica,sans-Serif" font-size="10.00">algorithm</text>
</a>
</g>
</g>
<!-- Node2&#45;&gt;Node3 -->
<g id="edge2_Node000002_Node000003" class="edge">
<title>Node2&#45;&gt;Node3</title>
<g id="a_edge2_Node000002_Node000003"><a xlink:title=" ">
<path fill="none" stroke="#63b8ff" d="M250.6,-55.59C250.24,-49.01 249.73,-39.96 249.28,-31.73"/>
<polygon fill="#63b8ff" stroke="#63b8ff" points="252.77,-31.6 248.73,-21.81 245.79,-31.99 252.77,-31.6"/>
</a>
</g>
</g>
<!-- Node4 -->
<g id="Node000004" class="node">
<title>Node4</title>
<g id="a_Node000004"><a xlink:title=" ">
<polygon fill="#e0e0e0" stroke="#999999" points="48.25,-20 0,-20 0,0 48.25,0 48.25,-20"/>
<text text-anchor="middle" x="24.12" y="-6.5" font-family="Helvetica,sans-Serif" font-size="10.00">random</text>
</a>
</g>
</g>
<!-- Node2&#45;&gt;Node4 -->
<g id="edge3_Node000002_Node000004" class="edge">
<title>Node2&#45;&gt;Node4</title>
<g id="a_edge3_Node000002_Node000004"><a xlink:title=" ">
<path fill="none" stroke="#63b8ff" d="M211.63,-56.31C174.66,-48.06 117.61,-35.08 59.47,-20.52"/>
<polygon fill="#63b8ff" stroke="#63b8ff" points="60.63,-17.21 50.07,-18.16 58.92,-23.99 60.63,-17.21"/>
</a>
</g>
</g>
<!-- Node2&#45;&gt;Node5 -->
<g id="edge4_Node000002_Node000005" class="edge">
<title>Node2&#45;&gt;Node5</title>
<g id="a_edge4_Node000002_Node000005"><a xlink:title=" ">
<path fill="none" stroke="#63b8ff" d="M285.94,-55.55C316.55,-47.2 362.54,-34.52 411.37,-20.46"/>
<polygon fill="#63b8ff" stroke="#63b8ff" points="412.07,-23.91 420.71,-17.77 410.13,-17.18 412.07,-23.91"/>
</a>
</g>
</g>
<!-- Node6 -->
<g id="Node000006" class="node">
<title>Node6</title>
<g id="a_Node000006"><a xlink:title=" ">
<polygon fill="#e0e0e0" stroke="#999999" points="111.75,-20 66.5,-20 66.5,0 111.75,0 111.75,-20"/>
<text text-anchor="middle" x="89.12" y="-6.5" font-family="Helvetica,sans-Serif" font-size="10.00">chrono</text>
</a>
</g>
</g>
<!-- Node2&#45;&gt;Node6 -->
<g id="edge5_Node000002_Node000006" class="edge">
<title>Node2&#45;&gt;Node6</title>
<g id="a_edge5_Node000002_Node000006"><a xlink:title=" ">
<path fill="none" stroke="#63b8ff" d="M222.91,-55.59C195.01,-46.3 152.33,-32.07 122.71,-22.19"/>
<polygon fill="#63b8ff" stroke="#63b8ff" points="124.08,-18.96 113.49,-19.12 121.87,-25.6 124.08,-18.96"/>
</a>
</g>
</g>
<!-- Node7 -->
<g id="Node000007" class="node">
<title>Node7</title>
<g id="a_Node000007"><a xlink:title=" ">
<polygon fill="#e0e0e0" stroke="#999999" points="404,-20 366.25,-20 366.25,0 404,0 404,-20"/>
<text text-anchor="middle" x="385.12" y="-6.5" font-family="Helvetica,sans-Serif" font-size="10.00">array</text>
</a>
</g>
</g>
<!-- Node2&#45;&gt;Node7 -->
<g id="edge6_Node000002_Node000007" class="edge">
<title>Node2&#45;&gt;Node7</title>
<g id="a_edge6_Node000002_Node000007"><a xlink:title=" ">
<path fill="none" stroke="#63b8ff" d="M274.47,-55.59C296.96,-46.53 331.1,-32.77 355.5,-22.94"/>
<polygon fill="#63b8ff" stroke="#63b8ff" points="356.58,-26.28 364.55,-19.29 353.97,-19.78 356.58,-26.28"/>
</a>
</g>
</g>
<!-- Node2&#45;&gt;Node8 -->
<g id="edge7_Node000002_Node000008" class="edge">
<title>Node2&#45;&gt;Node8</title>
<g id="a_edge7_Node000002_Node000008"><a xlink:title=" ">
<path fill="none" stroke="#63b8ff" d="M263.32,-55.59C273.46,-47.77 288.12,-36.46 300.14,-27.19"/>
<polygon fill="#63b8ff" stroke="#63b8ff" points="302.09,-30.1 307.87,-21.22 297.82,-24.56 302.09,-30.1"/>
</a>
</g>
</g>
<!-- Node9 -->
<g id="Node000009" class="node">
<title>Node9</title>
<g id="a_Node000009"><a xlink:title=" ">
<polygon fill="#e0e0e0" stroke="#999999" points="202.25,-20 130,-20 130,0 202.25,0 202.25,-20"/>
<text text-anchor="middle" x="166.12" y="-6.5" font-family="Helvetica,sans-Serif" font-size="10.00">initializer_list</text>
</a>
</g>
</g>
<!-- Node2&#45;&gt;Node9 -->
<g id="edge8_Node000002_Node000009" class="edge">
<title>Node2&#45;&gt;Node9</title>
<g id="a_edge8_Node000002_Node000009"><a xlink:title=" ">
<path fill="none" stroke="#63b8ff" d="M236.32,-55.59C223.72,-47.59 205.37,-35.93 190.59,-26.54"/>
<polygon fill="#63b8ff" stroke="#63b8ff" points="192.64,-23.7 182.32,-21.29 188.89,-29.61 192.64,-23.7"/>
</a>
</g>
</g>
<!-- Node10&#45;&gt;Node5 -->
<g id="edge11_Node000010_Node000005" class="edge">
<title>Node10&#45;&gt;Node5</title>
<g id="a_edge11_Node000010_Node000005"><a xlink:title=" ">
<path fill="none" stroke="#63b8ff" d="M445.6,-55.59C445.24,-49.01 444.73,-39.96 444.28,-31.73"/>
<polygon fill="#63b8ff" stroke="#63b8ff" points="447.77,-31.6 443.73,-21.81 440.79,-31.99 447.77,-31.6"/>
</a>
</g>
</g>
<!-- Node10&#45;&gt;Node7 -->
<g id="edge12_Node000010_Node000007" class="edge">
<title>Node10&#45;&gt;Node7</title>
<g id="a_edge12_Node000010_Node000007"><a xlink:title=" ">
<path fill="none" stroke="#63b8ff" d="M435.5,-55.59C426.84,-47.93 414.39,-36.91 404.04,-27.75"/>
<polygon fill="#63b8ff" stroke="#63b8ff" points="406.57,-25.31 396.76,-21.3 401.93,-30.55 406.57,-25.31"/>
</a>
</g>
</g>
<!-- Node11 -->
<g id="Node000011" class="node">
<title>Node11</title>
<g id="a_Node000011"><a xlink:title=" ">
<polygon fill="#e0e0e0" stroke="#999999" points="522.12,-20 482.12,-20 482.12,0 522.12,0 522.12,-20"/>
<text text-anchor="middle" x="502.12" y="-6.5" font-family="Helvetica,sans-Serif" font-size="10.00">string</text>
</a>
</g>
</g>
<!-- Node10&#45;&gt;Node11 -->
<g id="edge10_Node000010_Node000011" class="edge">
<title>Node10&#45;&gt;Node11</title>
<g id="a_edge10_Node000010_Node000011"><a xlink:title=" ">
<path fill="none" stroke="#63b8ff" d="M455.88,-55.59C463.75,-48.01 475.02,-37.13 484.47,-28.02"/>
<polygon fill="#63b8ff" stroke="#63b8ff" points="486.62,-30.81 491.39,-21.35 481.76,-25.77 486.62,-30.81"/>
</a>
</g>
</g>
<!-- Node12 -->
<g id="Node000012" class="node">
<title>Node12</title>
<g id="a_Node000012"><a xlink:title=" ">
<polygon fill="#e0e0e0" stroke="#999999" points="588.25,-20 540,-20 540,0 588.25,0 588.25,-20"/>
<text text-anchor="middle" x="564.12" y="-6.5" font-family="Helvetica,sans-Serif" font-size="10.00">fstream</text>
</a>
</g>
</g>
<!-- Node10&#45;&gt;Node12 -->
<g id="edge13_Node000010_Node000012" class="edge">
<title>Node10&#45;&gt;Node12</title>
<g id="a_edge13_Node000010_Node000012"><a xlink:title=" ">
<path fill="none" stroke="#63b8ff" d="M466.68,-55.59C485.01,-47.21 512.11,-34.8 533.08,-25.21"/>
<polygon fill="#63b8ff" stroke="#63b8ff" points="534.4,-28.45 542.03,-21.11 531.48,-22.09 534.4,-28.45"/>
</a>
</g>
</g>
</g>
</svg>
