<?xml version="1.0" encoding="UTF-8" standalone="no"?>
<!DOCTYPE svg PUBLIC "-//W3C//DTD SVG 1.1//EN"
 "http://www.w3.org/Graphics/SVG/1.1/DTD/svg11.dtd">
<!-- Generated by graphviz version 11.0.0 (20240428.1522)
 -->
<!-- Title: C:/Users/harshn/Desktop/VoronoiGrowthSimulator/MTEngine/MTEngine.cpp Pages: 1 -->
<svg width="471pt" height="164pt"
 viewBox="0.00 0.00 470.62 164.00" xmlns="http://www.w3.org/2000/svg" xmlns:xlink="http://www.w3.org/1999/xlink">

<svg id="main" version="1.1" xmlns="http://www.w3.org/2000/svg" xmlns:xlink="http://www.w3.org/1999/xlink" xml:space="preserve" onload="init(evt)">
<style type="text/css"><![CDATA[
.node, .edge {opacity: 0.7;}
.node.selected, .edge.selected {opacity: 1;}
.edge:hover path { stroke: red; }
.edge:hover polygon { stroke: red; fill: red; }
]]></style>
<script type="application/ecmascript" xlink:href="svg.min.js"/>
<svg id="graph" class="graph">
<g id="graph0" class="graph" transform="scale(1 1) rotate(0) translate(4 160)">
<title>C:/Users/harshn/Desktop/VoronoiGrowthSimulator/MTEngine/MTEngine.cpp</title>
<!-- Node1 -->
<g id="Node000001" class="node">
<title>Node1</title>
<g id="a_Node000001"><a xlink:title=" ">
<polygon fill="#999999" stroke="#666666" points="348.75,-156 221,-156 221,-112 348.75,-112 348.75,-156"/>
<text text-anchor="start" x="229" y="-142.5" font-family="Helvetica,sans-Serif" font-size="10.00">C:/Users/harshn/Desktop</text>
<text text-anchor="start" x="229" y="-130.5" font-family="Helvetica,sans-Serif" font-size="10.00">/VoronoiGrowthSimulator</text>
<text text-anchor="middle" x="284.88" y="-118.5" font-family="Helvetica,sans-Serif" font-size="10.00">/MTEngine/MTEngine.cpp</text>
</a>
</g>
</g>
<!-- Node2 -->
<g id="Node000002" class="node">
<title>Node2</title>
<g id="a_Node000002"><a xlink:href="_m_t_engine_8hpp.html" target="_top" xlink:title=" ">
<polygon fill="white" stroke="#666666" points="291,-76 212.75,-76 212.75,-56 291,-56 291,-76"/>
<text text-anchor="middle" x="251.88" y="-62.5" font-family="Helvetica,sans-Serif" font-size="10.00">MTEngine.hpp</text>
</a>
</g>
</g>
<!-- Node1&#45;&gt;Node2 -->
<g id="edge1_Node000001_Node000002" class="edge">
<title>Node1&#45;&gt;Node2</title>
<g id="a_edge1_Node000001_Node000002"><a xlink:title=" ">
<path fill="none" stroke="#63b8ff" d="M274.25,-111.75C270.21,-103.66 265.62,-94.48 261.65,-86.55"/>
<polygon fill="#63b8ff" stroke="#63b8ff" points="264.86,-85.15 257.26,-77.77 258.6,-88.28 264.86,-85.15"/>
</a>
</g>
</g>
<!-- Node8 -->
<g id="Node000008" class="node">
<title>Node8</title>
<g id="a_Node000008"><a xlink:title=" ">
<polygon fill="#e0e0e0" stroke="#999999" points="462.62,-20 409.12,-20 409.12,0 462.62,0 462.62,-20"/>
<text text-anchor="middle" x="435.88" y="-6.5" font-family="Helvetica,sans-Serif" font-size="10.00">iostream</text>
</a>
</g>
</g>
<!-- Node1&#45;&gt;Node8 -->
<g id="edge9_Node000001_Node000008" class="edge">
<title>Node1&#45;&gt;Node8</title>
<g id="a_edge9_Node000001_Node000008"><a xlink:title=" ">
<path fill="none" stroke="#63b8ff" d="M311.18,-111.75C340.83,-87.79 388.41,-49.35 415.42,-27.53"/>
<polygon fill="#63b8ff" stroke="#63b8ff" points="417.61,-30.26 423.19,-21.25 413.21,-24.81 417.61,-30.26"/>
</a>
</g>
</g>
<!-- Node3 -->
<g id="Node000003" class="node">
<title>Node3</title>
<g id="a_Node000003"><a xlink:title=" ">
<polygon fill="#e0e0e0" stroke="#999999" points="55.75,-20 0,-20 0,0 55.75,0 55.75,-20"/>
<text text-anchor="middle" x="27.88" y="-6.5" font-family="Helvetica,sans-Serif" font-size="10.00">algorithm</text>
</a>
</g>
</g>
<!-- Node2&#45;&gt;Node3 -->
<g id="edge2_Node000002_Node000003" class="edge">
<title>Node2&#45;&gt;Node3</title>
<g id="a_edge2_Node000002_Node000003"><a xlink:title=" ">
<path fill="none" stroke="#63b8ff" d="M212.47,-55.55C176.98,-47.03 123.1,-34.08 67.33,-20.59"/>
<polygon fill="#63b8ff" stroke="#63b8ff" points="68.17,-17.19 57.63,-18.24 66.52,-24 68.17,-17.19"/>
</a>
</g>
</g>
<!-- Node4 -->
<g id="Node000004" class="node">
<title>Node4</title>
<g id="a_Node000004"><a xlink:title=" ">
<polygon fill="#e0e0e0" stroke="#999999" points="122,-20 73.75,-20 73.75,0 122,0 122,-20"/>
<text text-anchor="middle" x="97.88" y="-6.5" font-family="Helvetica,sans-Serif" font-size="10.00">random</text>
</a>
</g>
</g>
<!-- Node2&#45;&gt;Node4 -->
<g id="edge3_Node000002_Node000004" class="edge">
<title>Node2&#45;&gt;Node4</title>
<g id="a_edge3_Node000002_Node000004"><a xlink:title=" ">
<path fill="none" stroke="#63b8ff" d="M225.05,-55.59C199.49,-46.63 160.86,-33.09 132.88,-23.28"/>
<polygon fill="#63b8ff" stroke="#63b8ff" points="134.38,-20.09 123.79,-20.09 132.07,-26.7 134.38,-20.09"/>
</a>
</g>
</g>
<!-- Node5 -->
<g id="Node000005" class="node">
<title>Node5</title>
<g id="a_Node000005"><a xlink:title=" ">
<polygon fill="#e0e0e0" stroke="#999999" points="181.62,-20 140.12,-20 140.12,0 181.62,0 181.62,-20"/>
<text text-anchor="middle" x="160.88" y="-6.5" font-family="Helvetica,sans-Serif" font-size="10.00">vector</text>
</a>
</g>
</g>
<!-- Node2&#45;&gt;Node5 -->
<g id="edge4_Node000002_Node000005" class="edge">
<title>Node2&#45;&gt;Node5</title>
<g id="a_edge4_Node000002_Node000005"><a xlink:title=" ">
<path fill="none" stroke="#63b8ff" d="M236.02,-55.59C222.41,-47.51 202.51,-35.71 186.61,-26.27"/>
<polygon fill="#63b8ff" stroke="#63b8ff" points="188.54,-23.35 178.15,-21.25 184.97,-29.37 188.54,-23.35"/>
</a>
</g>
</g>
<!-- Node6 -->
<g id="Node000006" class="node">
<title>Node6</title>
<g id="a_Node000006"><a xlink:title=" ">
<polygon fill="#e0e0e0" stroke="#999999" points="244.5,-20 199.25,-20 199.25,0 244.5,0 244.5,-20"/>
<text text-anchor="middle" x="221.88" y="-6.5" font-family="Helvetica,sans-Serif" font-size="10.00">chrono</text>
</a>
</g>
</g>
<!-- Node2&#45;&gt;Node6 -->
<g id="edge5_Node000002_Node000006" class="edge">
<title>Node2&#45;&gt;Node6</title>
<g id="a_edge5_Node000002_Node000006"><a xlink:title=" ">
<path fill="none" stroke="#63b8ff" d="M246.65,-55.59C242.78,-48.63 237.37,-38.89 232.59,-30.29"/>
<polygon fill="#63b8ff" stroke="#63b8ff" points="235.69,-28.66 227.78,-21.62 229.57,-32.06 235.69,-28.66"/>
</a>
</g>
</g>
<!-- Node7 -->
<g id="Node000007" class="node">
<title>Node7</title>
<g id="a_Node000007"><a xlink:title=" ">
<polygon fill="#e0e0e0" stroke="#999999" points="300.75,-20 263,-20 263,0 300.75,0 300.75,-20"/>
<text text-anchor="middle" x="281.88" y="-6.5" font-family="Helvetica,sans-Serif" font-size="10.00">array</text>
</a>
</g>
</g>
<!-- Node2&#45;&gt;Node7 -->
<g id="edge6_Node000002_Node000007" class="edge">
<title>Node2&#45;&gt;Node7</title>
<g id="a_edge6_Node000002_Node000007"><a xlink:title=" ">
<path fill="none" stroke="#63b8ff" d="M257.1,-55.59C260.97,-48.63 266.38,-38.89 271.16,-30.29"/>
<polygon fill="#63b8ff" stroke="#63b8ff" points="274.18,-32.06 275.97,-21.62 268.06,-28.66 274.18,-32.06"/>
</a>
</g>
</g>
<!-- Node2&#45;&gt;Node8 -->
<g id="edge7_Node000002_Node000008" class="edge">
<title>Node2&#45;&gt;Node8</title>
<g id="a_edge7_Node000002_Node000008"><a xlink:title=" ">
<path fill="none" stroke="#63b8ff" d="M283.93,-55.59C315.65,-46.28 364.24,-32.02 397.89,-22.15"/>
<polygon fill="#63b8ff" stroke="#63b8ff" points="398.62,-25.58 407.23,-19.41 396.65,-18.86 398.62,-25.58"/>
</a>
</g>
</g>
<!-- Node9 -->
<g id="Node000009" class="node">
<title>Node9</title>
<g id="a_Node000009"><a xlink:title=" ">
<polygon fill="#e0e0e0" stroke="#999999" points="391,-20 318.75,-20 318.75,0 391,0 391,-20"/>
<text text-anchor="middle" x="354.88" y="-6.5" font-family="Helvetica,sans-Serif" font-size="10.00">initializer_list</text>
</a>
</g>
</g>
<!-- Node2&#45;&gt;Node9 -->
<g id="edge8_Node000002_Node000009" class="edge">
<title>Node2&#45;&gt;Node9</title>
<g id="a_edge8_Node000002_Node000009"><a xlink:title=" ">
<path fill="none" stroke="#63b8ff" d="M269.82,-55.59C285.52,-47.36 308.61,-35.26 326.76,-25.74"/>
<polygon fill="#63b8ff" stroke="#63b8ff" points="328.22,-28.93 335.45,-21.18 324.97,-22.73 328.22,-28.93"/>
</a>
</g>
</g>
</g>
</svg>
</svg>

<style type='text/css'>
<![CDATA[
[data-mouse-over-selected='false'] { opacity: 0.7; }
[data-mouse-over-selected='true']  { opacity: 1.0; }
]]>
</style>
<script type="application/ecmascript"><![CDATA[
document.addEventListener('DOMContentLoaded', (event) => {
  highlightEdges();
  highlightAdjacentNodes();
});
]]></script>
</svg>
