<?xml version="1.0" encoding="UTF-8" standalone="no"?>
<!DOCTYPE svg PUBLIC "-//W3C//DTD SVG 1.1//EN"
 "http://www.w3.org/Graphics/SVG/1.1/DTD/svg11.dtd">
<!-- Generated by graphviz version 11.0.0 (20240428.1522)
 -->
<!-- Title: C:/Users/harshn/Desktop/VoronoiGrowthSimulator/PrintUtils/example.cpp Pages: 1 -->
<svg width="230pt" height="164pt"
 viewBox="0.00 0.00 229.88 164.00" xmlns="http://www.w3.org/2000/svg" xmlns:xlink="http://www.w3.org/1999/xlink">
<g id="graph0" class="graph" transform="scale(1 1) rotate(0) translate(4 160)">
<title>C:/Users/harshn/Desktop/VoronoiGrowthSimulator/PrintUtils/example.cpp</title>
<!-- Node1 -->
<g id="Node000001" class="node">
<title>Node1</title>
<g id="a_Node000001"><a xlink:title=" ">
<polygon fill="#999999" stroke="#666666" points="148.5,-156 23,-156 23,-112 148.5,-112 148.5,-156"/>
<text text-anchor="start" x="31" y="-142.5" font-family="Helvetica,sans-Serif" font-size="10.00">C:/Users/harshn/Desktop</text>
<text text-anchor="start" x="31" y="-130.5" font-family="Helvetica,sans-Serif" font-size="10.00">/VoronoiGrowthSimulator</text>
<text text-anchor="middle" x="85.75" y="-118.5" font-family="Helvetica,sans-Serif" font-size="10.00">/PrintUtils/example.cpp</text>
</a>
</g>
</g>
<!-- Node2 -->
<g id="Node000002" class="node">
<title>Node2</title>
<g id="a_Node000002"><a xlink:href="_print_utils_8hpp.html" target="_top" xlink:title="Contains utility functions for printing vectors and matrices.">
<polygon fill="white" stroke="#666666" points="123,-76 48.5,-76 48.5,-56 123,-56 123,-76"/>
<text text-anchor="middle" x="85.75" y="-62.5" font-family="Helvetica,sans-Serif" font-size="10.00">PrintUtils.hpp</text>
</a>
</g>
</g>
<!-- Node1&#45;&gt;Node2 -->
<g id="edge1_Node000001_Node000002" class="edge">
<title>Node1&#45;&gt;Node2</title>
<g id="a_edge1_Node000001_Node000002"><a xlink:title=" ">
<path fill="none" stroke="#63b8ff" d="M85.75,-111.75C85.75,-104.13 85.75,-95.53 85.75,-87.93"/>
<polygon fill="#63b8ff" stroke="#63b8ff" points="89.25,-87.93 85.75,-77.93 82.25,-87.93 89.25,-87.93"/>
</a>
</g>
</g>
<!-- Node4 -->
<g id="Node000004" class="node">
<title>Node4</title>
<g id="a_Node000004"><a xlink:title=" ">
<polygon fill="#e0e0e0" stroke="#999999" points="41.5,-20 0,-20 0,0 41.5,0 41.5,-20"/>
<text text-anchor="middle" x="20.75" y="-6.5" font-family="Helvetica,sans-Serif" font-size="10.00">vector</text>
</a>
</g>
</g>
<!-- Node1&#45;&gt;Node4 -->
<g id="edge6_Node000001_Node000004" class="edge">
<title>Node1&#45;&gt;Node4</title>
<g id="a_edge6_Node000001_Node000004"><a xlink:title=" ">
<path fill="none" stroke="#63b8ff" d="M65.19,-111.7C56.32,-101.56 46.47,-88.85 39.75,-76 32.4,-61.95 27.52,-44.66 24.55,-31.44"/>
<polygon fill="#63b8ff" stroke="#63b8ff" points="28,-30.84 22.57,-21.74 21.14,-32.24 28,-30.84"/>
</a>
</g>
</g>
<!-- Node7 -->
<g id="Node000007" class="node">
<title>Node7</title>
<g id="a_Node000007"><a xlink:title=" ">
<polygon fill="#e0e0e0" stroke="#999999" points="194.5,-76 141,-76 141,-56 194.5,-56 194.5,-76"/>
<text text-anchor="middle" x="167.75" y="-62.5" font-family="Helvetica,sans-Serif" font-size="10.00">iostream</text>
</a>
</g>
</g>
<!-- Node1&#45;&gt;Node7 -->
<g id="edge7_Node000001_Node000007" class="edge">
<title>Node1&#45;&gt;Node7</title>
<g id="a_edge7_Node000001_Node000007"><a xlink:title=" ">
<path fill="none" stroke="#63b8ff" d="M112.15,-111.75C123.47,-102.64 136.51,-92.14 147.11,-83.61"/>
<polygon fill="#63b8ff" stroke="#63b8ff" points="149.27,-86.36 154.87,-77.37 144.88,-80.91 149.27,-86.36"/>
</a>
</g>
</g>
<!-- Node3 -->
<g id="Node000003" class="node">
<title>Node3</title>
<g id="a_Node000003"><a xlink:title=" ">
<polygon fill="#e0e0e0" stroke="#999999" points="99.75,-20 59.75,-20 59.75,0 99.75,0 99.75,-20"/>
<text text-anchor="middle" x="79.75" y="-6.5" font-family="Helvetica,sans-Serif" font-size="10.00">string</text>
</a>
</g>
</g>
<!-- Node2&#45;&gt;Node3 -->
<g id="edge2_Node000002_Node000003" class="edge">
<title>Node2&#45;&gt;Node3</title>
<g id="a_edge2_Node000002_Node000003"><a xlink:title=" ">
<path fill="none" stroke="#63b8ff" d="M84.7,-55.59C83.97,-49.01 82.97,-39.96 82.05,-31.73"/>
<polygon fill="#63b8ff" stroke="#63b8ff" points="85.53,-31.35 80.95,-21.8 78.58,-32.13 85.53,-31.35"/>
</a>
</g>
</g>
<!-- Node2&#45;&gt;Node4 -->
<g id="edge3_Node000002_Node000004" class="edge">
<title>Node2&#45;&gt;Node4</title>
<g id="a_edge3_Node000002_Node000004"><a xlink:title=" ">
<path fill="none" stroke="#63b8ff" d="M74.43,-55.59C65.11,-47.85 51.67,-36.69 40.57,-27.47"/>
<polygon fill="#63b8ff" stroke="#63b8ff" points="43.04,-24.96 33.11,-21.27 38.56,-30.35 43.04,-24.96"/>
</a>
</g>
</g>
<!-- Node5 -->
<g id="Node000005" class="node">
<title>Node5</title>
<g id="a_Node000005"><a xlink:title=" ">
<polygon fill="#e0e0e0" stroke="#999999" points="155.62,-20 117.88,-20 117.88,0 155.62,0 155.62,-20"/>
<text text-anchor="middle" x="136.75" y="-6.5" font-family="Helvetica,sans-Serif" font-size="10.00">array</text>
</a>
</g>
</g>
<!-- Node2&#45;&gt;Node5 -->
<g id="edge4_Node000002_Node000005" class="edge">
<title>Node2&#45;&gt;Node5</title>
<g id="a_edge4_Node000002_Node000005"><a xlink:title=" ">
<path fill="none" stroke="#63b8ff" d="M94.63,-55.59C101.65,-48.16 111.65,-37.58 120.14,-28.58"/>
<polygon fill="#63b8ff" stroke="#63b8ff" points="122.61,-31.07 126.93,-21.4 117.52,-26.27 122.61,-31.07"/>
</a>
</g>
</g>
<!-- Node6 -->
<g id="Node000006" class="node">
<title>Node6</title>
<g id="a_Node000006"><a xlink:title=" ">
<polygon fill="#e0e0e0" stroke="#999999" points="221.88,-20 173.62,-20 173.62,0 221.88,0 221.88,-20"/>
<text text-anchor="middle" x="197.75" y="-6.5" font-family="Helvetica,sans-Serif" font-size="10.00">fstream</text>
</a>
</g>
</g>
<!-- Node2&#45;&gt;Node6 -->
<g id="edge5_Node000002_Node000006" class="edge">
<title>Node2&#45;&gt;Node6</title>
<g id="a_edge5_Node000002_Node000006"><a xlink:title=" ">
<path fill="none" stroke="#63b8ff" d="M105.26,-55.59C122.5,-47.28 147.91,-35.03 167.74,-25.47"/>
<polygon fill="#63b8ff" stroke="#63b8ff" points="169.24,-28.63 176.73,-21.14 166.2,-22.33 169.24,-28.63"/>
</a>
</g>
</g>
</g>
</svg>
