<?xml version="1.0" encoding="UTF-8" standalone="no"?>
<!DOCTYPE svg PUBLIC "-//W3C//DTD SVG 1.1//EN"
 "http://www.w3.org/Graphics/SVG/1.1/DTD/svg11.dtd">
<!-- Generated by graphviz version 11.0.0 (20240428.1522)
 -->
<!-- Title: C:/Users/harshn/Desktop/VoronoiGrowthSimulator/PrintUtils/PrintUtils.hpp Pages: 1 -->
<svg width="230pt" height="108pt"
 viewBox="0.00 0.00 230.12 108.00" xmlns="http://www.w3.org/2000/svg" xmlns:xlink="http://www.w3.org/1999/xlink">
<g id="graph0" class="graph" transform="scale(1 1) rotate(0) translate(4 104)">
<title>C:/Users/harshn/Desktop/VoronoiGrowthSimulator/PrintUtils/PrintUtils.hpp</title>
<!-- Node1 -->
<g id="Node000001" class="node">
<title>Node1</title>
<g id="a_Node000001"><a xlink:title="Contains utility functions for printing vectors and matrices.">
<polygon fill="#999999" stroke="#666666" points="170.75,-100 45.25,-100 45.25,-56 170.75,-56 170.75,-100"/>
<text text-anchor="start" x="53.25" y="-86.5" font-family="Helvetica,sans-Serif" font-size="10.00">C:/Users/harshn/Desktop</text>
<text text-anchor="start" x="53.25" y="-74.5" font-family="Helvetica,sans-Serif" font-size="10.00">/VoronoiGrowthSimulator</text>
<text text-anchor="middle" x="108" y="-62.5" font-family="Helvetica,sans-Serif" font-size="10.00">/PrintUtils/PrintUtils.hpp</text>
</a>
</g>
</g>
<!-- Node2 -->
<g id="Node000002" class="node">
<title>Node2</title>
<g id="a_Node000002"><a xlink:title=" ">
<polygon fill="#e0e0e0" stroke="#999999" points="40,-20 0,-20 0,0 40,0 40,-20"/>
<text text-anchor="middle" x="20" y="-6.5" font-family="Helvetica,sans-Serif" font-size="10.00">string</text>
</a>
</g>
</g>
<!-- Node1&#45;&gt;Node2 -->
<g id="edge1_Node000001_Node000002" class="edge">
<title>Node1&#45;&gt;Node2</title>
<g id="a_edge1_Node000001_Node000002"><a xlink:title=" ">
<path fill="none" stroke="#63b8ff" d="M79.67,-55.75C67.27,-46.45 52.95,-35.71 41.45,-27.09"/>
<polygon fill="#63b8ff" stroke="#63b8ff" points="43.87,-24.53 33.77,-21.33 39.67,-30.13 43.87,-24.53"/>
</a>
</g>
</g>
<!-- Node3 -->
<g id="Node000003" class="node">
<title>Node3</title>
<g id="a_Node000003"><a xlink:title=" ">
<polygon fill="#e0e0e0" stroke="#999999" points="99.75,-20 58.25,-20 58.25,0 99.75,0 99.75,-20"/>
<text text-anchor="middle" x="79" y="-6.5" font-family="Helvetica,sans-Serif" font-size="10.00">vector</text>
</a>
</g>
</g>
<!-- Node1&#45;&gt;Node3 -->
<g id="edge2_Node000001_Node000003" class="edge">
<title>Node1&#45;&gt;Node3</title>
<g id="a_edge2_Node000001_Node000003"><a xlink:title=" ">
<path fill="none" stroke="#63b8ff" d="M98.66,-55.75C95.15,-47.75 91.17,-38.69 87.71,-30.83"/>
<polygon fill="#63b8ff" stroke="#63b8ff" points="90.97,-29.55 83.75,-21.8 84.57,-32.37 90.97,-29.55"/>
</a>
</g>
</g>
<!-- Node4 -->
<g id="Node000004" class="node">
<title>Node4</title>
<g id="a_Node000004"><a xlink:title=" ">
<polygon fill="#e0e0e0" stroke="#999999" points="155.88,-20 118.12,-20 118.12,0 155.88,0 155.88,-20"/>
<text text-anchor="middle" x="137" y="-6.5" font-family="Helvetica,sans-Serif" font-size="10.00">array</text>
</a>
</g>
</g>
<!-- Node1&#45;&gt;Node4 -->
<g id="edge3_Node000001_Node000004" class="edge">
<title>Node1&#45;&gt;Node4</title>
<g id="a_edge3_Node000001_Node000004"><a xlink:title=" ">
<path fill="none" stroke="#63b8ff" d="M117.34,-55.75C120.85,-47.75 124.83,-38.69 128.29,-30.83"/>
<polygon fill="#63b8ff" stroke="#63b8ff" points="131.43,-32.37 132.25,-21.8 125.03,-29.55 131.43,-32.37"/>
</a>
</g>
</g>
<!-- Node5 -->
<g id="Node000005" class="node">
<title>Node5</title>
<g id="a_Node000005"><a xlink:title=" ">
<polygon fill="#e0e0e0" stroke="#999999" points="222.12,-20 173.88,-20 173.88,0 222.12,0 222.12,-20"/>
<text text-anchor="middle" x="198" y="-6.5" font-family="Helvetica,sans-Serif" font-size="10.00">fstream</text>
</a>
</g>
</g>
<!-- Node1&#45;&gt;Node5 -->
<g id="edge4_Node000001_Node000005" class="edge">
<title>Node1&#45;&gt;Node5</title>
<g id="a_edge4_Node000001_Node000005"><a xlink:title=" ">
<path fill="none" stroke="#63b8ff" d="M136.97,-55.75C149.66,-46.45 164.3,-35.71 176.06,-27.09"/>
<polygon fill="#63b8ff" stroke="#63b8ff" points="177.94,-30.05 183.94,-21.31 173.8,-24.41 177.94,-30.05"/>
</a>
</g>
</g>
</g>
</svg>
