<?xml version="1.0" encoding="UTF-8" standalone="no"?>
<!DOCTYPE svg PUBLIC "-//W3C//DTD SVG 1.1//EN"
 "http://www.w3.org/Graphics/SVG/1.1/DTD/svg11.dtd">
<!-- Generated by graphviz version 11.0.0 (20240428.1522)
 -->
<!-- Title: C:/Users/harshn/Desktop/VoronoiGrowthSimulator/Voronoi.cpp Pages: 1 -->
<svg width="596pt" height="220pt"
 viewBox="0.00 0.00 595.50 220.00" xmlns="http://www.w3.org/2000/svg" xmlns:xlink="http://www.w3.org/1999/xlink">
<g id="graph0" class="graph" transform="scale(1 1) rotate(0) translate(4 216)">
<title>C:/Users/harshn/Desktop/VoronoiGrowthSimulator/Voronoi.cpp</title>
<!-- Node1 -->
<g id="Node000001" class="node">
<title>Node1</title>
<g id="a_Node000001"><a xlink:title=" ">
<polygon fill="#999999" stroke="#666666" points="381.5,-212 256,-212 256,-168 381.5,-168 381.5,-212"/>
<text text-anchor="start" x="264" y="-198.5" font-family="Helvetica,sans-Serif" font-size="10.00">C:/Users/harshn/Desktop</text>
<text text-anchor="start" x="264" y="-186.5" font-family="Helvetica,sans-Serif" font-size="10.00">/VoronoiGrowthSimulator</text>
<text text-anchor="middle" x="318.75" y="-174.5" font-family="Helvetica,sans-Serif" font-size="10.00">/Voronoi.cpp</text>
</a>
</g>
</g>
<!-- Node2 -->
<g id="Node000002" class="node">
<title>Node2</title>
<g id="a_Node000002"><a xlink:href="_voronoi_8hpp.html" target="_top" xlink:title=" ">
<polygon fill="white" stroke="#666666" points="187.62,-132 119.88,-132 119.88,-112 187.62,-112 187.62,-132"/>
<text text-anchor="middle" x="153.75" y="-118.5" font-family="Helvetica,sans-Serif" font-size="10.00">Voronoi.hpp</text>
</a>
</g>
</g>
<!-- Node1&#45;&gt;Node2 -->
<g id="edge1_Node000001_Node000002" class="edge">
<title>Node1&#45;&gt;Node2</title>
<g id="a_edge1_Node000001_Node000002"><a xlink:title=" ">
<path fill="none" stroke="#63b8ff" d="M265.18,-167.57C239.74,-157.4 210.1,-145.54 187.79,-136.62"/>
<polygon fill="#63b8ff" stroke="#63b8ff" points="189.15,-133.39 178.57,-132.93 186.55,-139.89 189.15,-133.39"/>
</a>
</g>
</g>
<!-- Node3 -->
<g id="Node000003" class="node">
<title>Node3</title>
<g id="a_Node000003"><a xlink:title=" ">
<polygon fill="#e0e0e0" stroke="#999999" points="41.5,-20 0,-20 0,0 41.5,0 41.5,-20"/>
<text text-anchor="middle" x="20.75" y="-6.5" font-family="Helvetica,sans-Serif" font-size="10.00">vector</text>
</a>
</g>
</g>
<!-- Node1&#45;&gt;Node3 -->
<g id="edge19_Node000001_Node000003" class="edge">
<title>Node1&#45;&gt;Node3</title>
<g id="a_edge19_Node000001_Node000003"><a xlink:title=" ">
<path fill="none" stroke="#63b8ff" d="M255.67,-179.89C212.78,-171.78 155.87,-157.19 110.75,-132 78.9,-114.22 72.13,-105.56 50.75,-76 40.72,-62.14 32.8,-44.38 27.63,-30.94"/>
<polygon fill="#63b8ff" stroke="#63b8ff" points="31.03,-30.05 24.32,-21.86 24.45,-32.45 31.03,-30.05"/>
</a>
</g>
</g>
<!-- Node9 -->
<g id="Node000009" class="node">
<title>Node9</title>
<g id="a_Node000009"><a xlink:title=" ">
<polygon fill="#e0e0e0" stroke="#999999" points="587.5,-20 534,-20 534,0 587.5,0 587.5,-20"/>
<text text-anchor="middle" x="560.75" y="-6.5" font-family="Helvetica,sans-Serif" font-size="10.00">iostream</text>
</a>
</g>
</g>
<!-- Node1&#45;&gt;Node9 -->
<g id="edge16_Node000001_Node000009" class="edge">
<title>Node1&#45;&gt;Node9</title>
<g id="a_edge16_Node000001_Node000009"><a xlink:title=" ">
<path fill="none" stroke="#63b8ff" d="M347.94,-167.53C397.04,-131.41 495.07,-59.31 538.8,-27.14"/>
<polygon fill="#63b8ff" stroke="#63b8ff" points="540.79,-30.03 546.77,-21.28 536.64,-24.39 540.79,-30.03"/>
</a>
</g>
</g>
<!-- Node13 -->
<g id="Node000013" class="node">
<title>Node13</title>
<g id="a_Node000013"><a xlink:title=" ">
<polygon fill="#e0e0e0" stroke="#999999" points="165.88,-20 117.62,-20 117.62,0 165.88,0 165.88,-20"/>
<text text-anchor="middle" x="141.75" y="-6.5" font-family="Helvetica,sans-Serif" font-size="10.00">fstream</text>
</a>
</g>
</g>
<!-- Node1&#45;&gt;Node13 -->
<g id="edge20_Node000001_Node000013" class="edge">
<title>Node1&#45;&gt;Node13</title>
<g id="a_edge20_Node000001_Node000013"><a xlink:title=" ">
<path fill="none" stroke="#63b8ff" d="M304.23,-167.52C284.8,-139.74 248.31,-90.81 209.75,-56 197.31,-44.77 181.84,-34.31 168.8,-26.3"/>
<polygon fill="#63b8ff" stroke="#63b8ff" points="170.65,-23.33 160.26,-21.21 167.06,-29.34 170.65,-23.33"/>
</a>
</g>
</g>
<!-- Node14 -->
<g id="Node000014" class="node">
<title>Node14</title>
<g id="a_Node000014"><a xlink:title=" ">
<polygon fill="#e0e0e0" stroke="#999999" points="480.25,-132 437.25,-132 437.25,-112 480.25,-112 480.25,-132"/>
<text text-anchor="middle" x="458.75" y="-118.5" font-family="Helvetica,sans-Serif" font-size="10.00">time.h</text>
</a>
</g>
</g>
<!-- Node1&#45;&gt;Node14 -->
<g id="edge17_Node000001_Node000014" class="edge">
<title>Node1&#45;&gt;Node14</title>
<g id="a_edge17_Node000001_Node000014"><a xlink:title=" ">
<path fill="none" stroke="#63b8ff" d="M364.2,-167.57C385.29,-157.63 409.79,-146.08 428.56,-137.23"/>
<polygon fill="#63b8ff" stroke="#63b8ff" points="429.96,-140.44 437.52,-133.01 426.98,-134.11 429.96,-140.44"/>
</a>
</g>
</g>
<!-- Node15 -->
<g id="Node000015" class="node">
<title>Node15</title>
<g id="a_Node000015"><a xlink:title=" ">
<polygon fill="#e0e0e0" stroke="#999999" points="544.75,-132 498.75,-132 498.75,-112 544.75,-112 544.75,-132"/>
<text text-anchor="middle" x="521.75" y="-118.5" font-family="Helvetica,sans-Serif" font-size="10.00">math.h</text>
</a>
</g>
</g>
<!-- Node1&#45;&gt;Node15 -->
<g id="edge18_Node000001_Node000015" class="edge">
<title>Node1&#45;&gt;Node15</title>
<g id="a_edge18_Node000001_Node000015"><a xlink:title=" ">
<path fill="none" stroke="#63b8ff" d="M381.87,-168.48C416.8,-157.12 458.85,-143.45 487.67,-134.08"/>
<polygon fill="#63b8ff" stroke="#63b8ff" points="488.53,-137.48 496.96,-131.06 486.36,-130.82 488.53,-137.48"/>
</a>
</g>
</g>
<!-- Node2&#45;&gt;Node3 -->
<g id="edge2_Node000002_Node000003" class="edge">
<title>Node2&#45;&gt;Node3</title>
<g id="a_edge2_Node000002_Node000003"><a xlink:title=" ">
<path fill="none" stroke="#63b8ff" d="M131.99,-111.51C115.07,-103.51 91.55,-90.98 73.75,-76 57.61,-62.42 42.77,-43.4 32.92,-29.44"/>
<polygon fill="#63b8ff" stroke="#63b8ff" points="36.08,-27.85 27.54,-21.57 30.3,-31.8 36.08,-27.85"/>
</a>
</g>
</g>
<!-- Node4 -->
<g id="Node000004" class="node">
<title>Node4</title>
<g id="a_Node000004"><a xlink:href="_m_t_engine_8hpp.html" target="_top" xlink:title=" ">
<polygon fill="white" stroke="#666666" points="381.12,-76 256.38,-76 256.38,-56 381.12,-56 381.12,-76"/>
<text text-anchor="middle" x="318.75" y="-62.5" font-family="Helvetica,sans-Serif" font-size="10.00">MTEngine/MTEngine.hpp</text>
</a>
</g>
</g>
<!-- Node2&#45;&gt;Node4 -->
<g id="edge3_Node000002_Node000004" class="edge">
<title>Node2&#45;&gt;Node4</title>
<g id="a_edge3_Node000002_Node000004"><a xlink:title=" ">
<path fill="none" stroke="#63b8ff" d="M182.49,-111.59C209.18,-102.86 249.17,-89.77 278.93,-80.03"/>
<polygon fill="#63b8ff" stroke="#63b8ff" points="279.93,-83.39 288.35,-76.95 277.75,-76.73 279.93,-83.39"/>
</a>
</g>
</g>
<!-- Node11 -->
<g id="Node000011" class="node">
<title>Node11</title>
<g id="a_Node000011"><a xlink:href="_print_utils_8hpp.html" target="_top" xlink:title="Contains utility functions for printing vectors and matrices.">
<polygon fill="white" stroke="#666666" points="200.38,-76 83.12,-76 83.12,-56 200.38,-56 200.38,-76"/>
<text text-anchor="middle" x="141.75" y="-62.5" font-family="Helvetica,sans-Serif" font-size="10.00">PrintUtils/PrintUtils.hpp</text>
</a>
</g>
</g>
<!-- Node2&#45;&gt;Node11 -->
<g id="edge11_Node000002_Node000011" class="edge">
<title>Node2&#45;&gt;Node11</title>
<g id="a_edge11_Node000002_Node000011"><a xlink:title=" ">
<path fill="none" stroke="#63b8ff" d="M151.66,-111.59C150.18,-104.93 148.14,-95.75 146.29,-87.44"/>
<polygon fill="#63b8ff" stroke="#63b8ff" points="149.73,-86.78 144.14,-77.78 142.9,-88.3 149.73,-86.78"/>
</a>
</g>
</g>
<!-- Node4&#45;&gt;Node3 -->
<g id="edge6_Node000004_Node000003" class="edge">
<title>Node4&#45;&gt;Node3</title>
<g id="a_edge6_Node000004_Node000003"><a xlink:title=" ">
<path fill="none" stroke="#63b8ff" d="M256.04,-56.73C204,-49.36 127.9,-37.41 53.01,-20.29"/>
<polygon fill="#63b8ff" stroke="#63b8ff" points="53.97,-16.92 43.44,-18.07 52.39,-23.74 53.97,-16.92"/>
</a>
</g>
</g>
<!-- Node5 -->
<g id="Node000005" class="node">
<title>Node5</title>
<g id="a_Node000005"><a xlink:title=" ">
<polygon fill="#e0e0e0" stroke="#999999" points="515.62,-20 459.88,-20 459.88,0 515.62,0 515.62,-20"/>
<text text-anchor="middle" x="487.75" y="-6.5" font-family="Helvetica,sans-Serif" font-size="10.00">algorithm</text>
</a>
</g>
</g>
<!-- Node4&#45;&gt;Node5 -->
<g id="edge4_Node000004_Node000005" class="edge">
<title>Node4&#45;&gt;Node5</title>
<g id="a_edge4_Node000004_Node000005"><a xlink:title=" ">
<path fill="none" stroke="#63b8ff" d="M348.19,-55.59C376.07,-46.69 418.11,-33.25 448.76,-23.46"/>
<polygon fill="#63b8ff" stroke="#63b8ff" points="449.59,-26.87 458.05,-20.49 447.46,-20.2 449.59,-26.87"/>
</a>
</g>
</g>
<!-- Node6 -->
<g id="Node000006" class="node">
<title>Node6</title>
<g id="a_Node000006"><a xlink:title=" ">
<polygon fill="#e0e0e0" stroke="#999999" points="287.88,-20 239.62,-20 239.62,0 287.88,0 287.88,-20"/>
<text text-anchor="middle" x="263.75" y="-6.5" font-family="Helvetica,sans-Serif" font-size="10.00">random</text>
</a>
</g>
</g>
<!-- Node4&#45;&gt;Node6 -->
<g id="edge5_Node000004_Node000006" class="edge">
<title>Node4&#45;&gt;Node6</title>
<g id="a_edge5_Node000004_Node000006"><a xlink:title=" ">
<path fill="none" stroke="#63b8ff" d="M309.17,-55.59C301.52,-48.08 290.59,-37.35 281.37,-28.3"/>
<polygon fill="#63b8ff" stroke="#63b8ff" points="283.89,-25.87 274.3,-21.36 278.98,-30.86 283.89,-25.87"/>
</a>
</g>
</g>
<!-- Node7 -->
<g id="Node000007" class="node">
<title>Node7</title>
<g id="a_Node000007"><a xlink:title=" ">
<polygon fill="#e0e0e0" stroke="#999999" points="351.38,-20 306.12,-20 306.12,0 351.38,0 351.38,-20"/>
<text text-anchor="middle" x="328.75" y="-6.5" font-family="Helvetica,sans-Serif" font-size="10.00">chrono</text>
</a>
</g>
</g>
<!-- Node4&#45;&gt;Node7 -->
<g id="edge7_Node000004_Node000007" class="edge">
<title>Node4&#45;&gt;Node7</title>
<g id="a_edge7_Node000004_Node000007"><a xlink:title=" ">
<path fill="none" stroke="#63b8ff" d="M320.49,-55.59C321.73,-48.93 323.43,-39.75 324.96,-31.44"/>
<polygon fill="#63b8ff" stroke="#63b8ff" points="328.37,-32.26 326.75,-21.79 321.49,-30.98 328.37,-32.26"/>
</a>
</g>
</g>
<!-- Node8 -->
<g id="Node000008" class="node">
<title>Node8</title>
<g id="a_Node000008"><a xlink:title=" ">
<polygon fill="#e0e0e0" stroke="#999999" points="221.62,-20 183.88,-20 183.88,0 221.62,0 221.62,-20"/>
<text text-anchor="middle" x="202.75" y="-6.5" font-family="Helvetica,sans-Serif" font-size="10.00">array</text>
</a>
</g>
</g>
<!-- Node4&#45;&gt;Node8 -->
<g id="edge8_Node000004_Node000008" class="edge">
<title>Node4&#45;&gt;Node8</title>
<g id="a_edge8_Node000004_Node000008"><a xlink:title=" ">
<path fill="none" stroke="#63b8ff" d="M298.54,-55.59C280.19,-47.05 252.9,-34.35 232.14,-24.68"/>
<polygon fill="#63b8ff" stroke="#63b8ff" points="233.87,-21.63 223.33,-20.58 230.91,-27.97 233.87,-21.63"/>
</a>
</g>
</g>
<!-- Node4&#45;&gt;Node9 -->
<g id="edge9_Node000004_Node000009" class="edge">
<title>Node4&#45;&gt;Node9</title>
<g id="a_edge9_Node000004_Node000009"><a xlink:title=" ">
<path fill="none" stroke="#63b8ff" d="M363.85,-55.55C403.27,-47.21 462.34,-34.48 522.75,-20.42"/>
<polygon fill="#63b8ff" stroke="#63b8ff" points="523.23,-23.9 532.17,-18.21 521.64,-17.08 523.23,-23.9"/>
</a>
</g>
</g>
<!-- Node10 -->
<g id="Node000010" class="node">
<title>Node10</title>
<g id="a_Node000010"><a xlink:title=" ">
<polygon fill="#e0e0e0" stroke="#999999" points="441.88,-20 369.62,-20 369.62,0 441.88,0 441.88,-20"/>
<text text-anchor="middle" x="405.75" y="-6.5" font-family="Helvetica,sans-Serif" font-size="10.00">initializer_list</text>
</a>
</g>
</g>
<!-- Node4&#45;&gt;Node10 -->
<g id="edge10_Node000004_Node000010" class="edge">
<title>Node4&#45;&gt;Node10</title>
<g id="a_edge10_Node000004_Node000010"><a xlink:title=" ">
<path fill="none" stroke="#63b8ff" d="M333.9,-55.59C346.8,-47.59 365.58,-35.93 380.71,-26.54"/>
<polygon fill="#63b8ff" stroke="#63b8ff" points="382.54,-29.53 389.19,-21.28 378.85,-23.58 382.54,-29.53"/>
</a>
</g>
</g>
<!-- Node11&#45;&gt;Node3 -->
<g id="edge13_Node000011_Node000003" class="edge">
<title>Node11&#45;&gt;Node3</title>
<g id="a_edge13_Node000011_Node000003"><a xlink:title=" ">
<path fill="none" stroke="#63b8ff" d="M120.67,-55.59C101.79,-47.17 73.83,-34.69 52.29,-25.07"/>
<polygon fill="#63b8ff" stroke="#63b8ff" points="53.93,-21.98 43.37,-21.1 51.08,-28.37 53.93,-21.98"/>
</a>
</g>
</g>
<!-- Node11&#45;&gt;Node8 -->
<g id="edge14_Node000011_Node000008" class="edge">
<title>Node11&#45;&gt;Node8</title>
<g id="a_edge14_Node000011_Node000008"><a xlink:title=" ">
<path fill="none" stroke="#63b8ff" d="M152.38,-55.59C161.03,-47.93 173.48,-36.91 183.83,-27.75"/>
<polygon fill="#63b8ff" stroke="#63b8ff" points="185.95,-30.55 191.11,-21.3 181.31,-25.31 185.95,-30.55"/>
</a>
</g>
</g>
<!-- Node12 -->
<g id="Node000012" class="node">
<title>Node12</title>
<g id="a_Node000012"><a xlink:title=" ">
<polygon fill="#e0e0e0" stroke="#999999" points="99.75,-20 59.75,-20 59.75,0 99.75,0 99.75,-20"/>
<text text-anchor="middle" x="79.75" y="-6.5" font-family="Helvetica,sans-Serif" font-size="10.00">string</text>
</a>
</g>
</g>
<!-- Node11&#45;&gt;Node12 -->
<g id="edge12_Node000011_Node000012" class="edge">
<title>Node11&#45;&gt;Node12</title>
<g id="a_edge12_Node000011_Node000012"><a xlink:title=" ">
<path fill="none" stroke="#63b8ff" d="M130.95,-55.59C122.15,-47.93 109.5,-36.91 98.98,-27.75"/>
<polygon fill="#63b8ff" stroke="#63b8ff" points="101.41,-25.22 91.57,-21.29 96.81,-30.5 101.41,-25.22"/>
</a>
</g>
</g>
<!-- Node11&#45;&gt;Node13 -->
<g id="edge15_Node000011_Node000013" class="edge">
<title>Node11&#45;&gt;Node13</title>
<g id="a_edge15_Node000011_Node000013"><a xlink:title=" ">
<path fill="none" stroke="#63b8ff" d="M141.75,-55.59C141.75,-49.01 141.75,-39.96 141.75,-31.73"/>
<polygon fill="#63b8ff" stroke="#63b8ff" points="145.25,-31.81 141.75,-21.81 138.25,-31.81 145.25,-31.81"/>
</a>
</g>
</g>
</g>
</svg>
