<?xml version="1.0" encoding="UTF-8" standalone="no"?>
<!DOCTYPE svg PUBLIC "-//W3C//DTD SVG 1.1//EN"
 "http://www.w3.org/Graphics/SVG/1.1/DTD/svg11.dtd">
<!-- Generated by graphviz version 11.0.0 (20240428.1522)
 -->
<!-- Title: MTEngine::rand Pages: 1 -->
<svg width="297pt" height="256pt"
 viewBox="0.00 0.00 296.75 256.00" xmlns="http://www.w3.org/2000/svg" xmlns:xlink="http://www.w3.org/1999/xlink">

<svg id="main" version="1.1" xmlns="http://www.w3.org/2000/svg" xmlns:xlink="http://www.w3.org/1999/xlink" xml:space="preserve" onload="init(evt)">
<style type="text/css"><![CDATA[
.node, .edge {opacity: 0.7;}
.node.selected, .edge.selected {opacity: 1;}
.edge:hover path { stroke: red; }
.edge:hover polygon { stroke: red; fill: red; }
]]></style>
<script type="application/ecmascript" xlink:href="svg.min.js"/>
<svg id="graph" class="graph">
<g id="graph0" class="graph" transform="scale(1 1) rotate(0) translate(4 252)">
<title>MTEngine::rand</title>
<!-- Node1 -->
<g id="Node000001" class="node">
<title>Node1</title>
<g id="a_Node000001"><a xlink:title=" ">
<polygon fill="#999999" stroke="#666666" points="288.75,-134 204.5,-134 204.5,-114 288.75,-114 288.75,-134"/>
<text text-anchor="middle" x="246.62" y="-120.5" font-family="Helvetica,sans-Serif" font-size="10.00">MTEngine::rand</text>
</a>
</g>
</g>
<!-- Node2 -->
<g id="Node000002" class="node">
<title>Node2</title>
<g id="a_Node000002"><a xlink:href="class_m_t_engine.html#a90e46a58f11c4f984fa34b9d972b75d1" target="_top" xlink:title=" ">
<polygon fill="white" stroke="#666666" points="167.75,-248 73.75,-248 73.75,-228 167.75,-228 167.75,-248"/>
<text text-anchor="middle" x="120.75" y="-234.5" font-family="Helvetica,sans-Serif" font-size="10.00">MTEngine::choice</text>
</a>
</g>
</g>
<!-- Node1&#45;&gt;Node2 -->
<g id="edge1_Node000001_Node000002" class="edge">
<title>Node1&#45;&gt;Node2</title>
<g id="a_edge1_Node000001_Node000002"><a xlink:title=" ">
<path fill="none" stroke="#63b8ff" d="M232.37,-143.52C218.29,-163.19 194.49,-193.48 168.5,-214 161.77,-219.31 153.68,-223.96 146.13,-227.72"/>
<polygon fill="#63b8ff" stroke="#63b8ff" points="235.08,-145.76 237.95,-135.56 229.35,-141.74 235.08,-145.76"/>
</a>
</g>
</g>
<!-- Node3 -->
<g id="Node000003" class="node">
<title>Node3</title>
<g id="a_Node000003"><a xlink:href="_m_t_engine_2example_8cpp.html#ae66f6b31b5ad750f1fe042a706a4e3d4" target="_top" xlink:title=" ">
<polygon fill="white" stroke="#666666" points="37,-210 0,-210 0,-190 37,-190 37,-210"/>
<text text-anchor="middle" x="18.5" y="-196.5" font-family="Helvetica,sans-Serif" font-size="10.00">main</text>
</a>
</g>
</g>
<!-- Node1&#45;&gt;Node3 -->
<g id="edge8_Node000001_Node000003" class="edge">
<title>Node1&#45;&gt;Node3</title>
<g id="a_edge8_Node000001_Node000003"><a xlink:title=" ">
<path fill="none" stroke="#63b8ff" d="M227.06,-142.03C212.4,-155.13 190.77,-172.06 168.5,-181 123.73,-198.97 65.85,-200.89 37.19,-200.57"/>
<polygon fill="#63b8ff" stroke="#63b8ff" points="229.15,-144.86 234.12,-135.5 224.4,-139.72 229.15,-144.86"/>
</a>
</g>
</g>
<!-- Node4 -->
<g id="Node000004" class="node">
<title>Node4</title>
<g id="a_Node000004"><a xlink:href="class_m_t_engine.html#abc55dd055a7c79fd6df5e67225f33f0f" target="_top" xlink:title=" ">
<polygon fill="white" stroke="#666666" points="167.75,-172 73.75,-172 73.75,-152 167.75,-152 167.75,-172"/>
<text text-anchor="middle" x="120.75" y="-158.5" font-family="Helvetica,sans-Serif" font-size="10.00">MTEngine::choice</text>
</a>
</g>
</g>
<!-- Node1&#45;&gt;Node4 -->
<g id="edge3_Node000001_Node000004" class="edge">
<title>Node1&#45;&gt;Node4</title>
<g id="a_edge3_Node000001_Node000004"><a xlink:title=" ">
<path fill="none" stroke="#63b8ff" d="M200.5,-137.84C185.74,-142.37 169.61,-147.32 155.82,-151.55"/>
<polygon fill="#63b8ff" stroke="#63b8ff" points="201.47,-141.21 210,-134.93 199.41,-134.51 201.47,-141.21"/>
</a>
</g>
</g>
<!-- Node5 -->
<g id="Node000005" class="node">
<title>Node5</title>
<g id="a_Node000005"><a xlink:href="class_m_t_engine.html#a87090b0d9cbeaac3b96c7366923d2a8f" target="_top" xlink:title=" ">
<polygon fill="white" stroke="#666666" points="167.75,-134 73.75,-134 73.75,-114 167.75,-114 167.75,-134"/>
<text text-anchor="middle" x="120.75" y="-120.5" font-family="Helvetica,sans-Serif" font-size="10.00">MTEngine::choice</text>
</a>
</g>
</g>
<!-- Node1&#45;&gt;Node5 -->
<g id="edge4_Node000001_Node000005" class="edge">
<title>Node1&#45;&gt;Node5</title>
<g id="a_edge4_Node000001_Node000005"><a xlink:title=" ">
<path fill="none" stroke="#63b8ff" d="M192.69,-124C184.53,-124 176.15,-124 168.14,-124"/>
<polygon fill="#63b8ff" stroke="#63b8ff" points="192.52,-127.5 202.52,-124 192.52,-120.5 192.52,-127.5"/>
</a>
</g>
</g>
<!-- Node6 -->
<g id="Node000006" class="node">
<title>Node6</title>
<g id="a_Node000006"><a xlink:href="class_m_t_engine.html#a825f630a87e815701a4923353c61f882" target="_top" xlink:title=" ">
<polygon fill="white" stroke="#666666" points="167.75,-96 73.75,-96 73.75,-76 167.75,-76 167.75,-96"/>
<text text-anchor="middle" x="120.75" y="-82.5" font-family="Helvetica,sans-Serif" font-size="10.00">MTEngine::choice</text>
</a>
</g>
</g>
<!-- Node1&#45;&gt;Node6 -->
<g id="edge5_Node000001_Node000006" class="edge">
<title>Node1&#45;&gt;Node6</title>
<g id="a_edge5_Node000001_Node000006"><a xlink:title=" ">
<path fill="none" stroke="#63b8ff" d="M200.5,-110.16C185.74,-105.63 169.61,-100.68 155.82,-96.45"/>
<polygon fill="#63b8ff" stroke="#63b8ff" points="199.41,-113.49 210,-113.07 201.47,-106.79 199.41,-113.49"/>
</a>
</g>
</g>
<!-- Node7 -->
<g id="Node000007" class="node">
<title>Node7</title>
<g id="a_Node000007"><a xlink:href="class_m_t_engine.html#a343114470d9218e0d3b7a4adef73a542" target="_top" xlink:title=" ">
<polygon fill="white" stroke="#666666" points="168.5,-58 73,-58 73,-38 168.5,-38 168.5,-58"/>
<text text-anchor="middle" x="120.75" y="-44.5" font-family="Helvetica,sans-Serif" font-size="10.00">MTEngine::Choice</text>
</a>
</g>
</g>
<!-- Node1&#45;&gt;Node7 -->
<g id="edge6_Node000001_Node000007" class="edge">
<title>Node1&#45;&gt;Node7</title>
<g id="a_edge6_Node000001_Node000007"><a xlink:title=" ">
<path fill="none" stroke="#63b8ff" d="M225.24,-106.72C210.23,-94.56 188.94,-78.47 168.5,-67 162.85,-63.83 156.55,-60.9 150.47,-58.35"/>
<polygon fill="#63b8ff" stroke="#63b8ff" points="222.61,-109.09 232.55,-112.75 227.06,-103.69 222.61,-109.09"/>
</a>
</g>
</g>
<!-- Node8 -->
<g id="Node000008" class="node">
<title>Node8</title>
<g id="a_Node000008"><a xlink:href="class_m_t_engine.html#a045d7d3ea0cd2d237882a08be5dfb059" target="_top" xlink:title=" ">
<polygon fill="white" stroke="#666666" points="162.88,-20 78.62,-20 78.62,0 162.88,0 162.88,-20"/>
<text text-anchor="middle" x="120.75" y="-6.5" font-family="Helvetica,sans-Serif" font-size="10.00">MTEngine::rand</text>
</a>
</g>
</g>
<!-- Node1&#45;&gt;Node8 -->
<g id="edge9_Node000001_Node000008" class="edge">
<title>Node1&#45;&gt;Node8</title>
<g id="a_edge9_Node000001_Node000008"><a xlink:title=" ">
<path fill="none" stroke="#63b8ff" d="M233.81,-104.14C220.35,-82.99 196.54,-49.77 168.5,-29 163.99,-25.66 158.82,-22.81 153.59,-20.4"/>
<polygon fill="#63b8ff" stroke="#63b8ff" points="230.69,-105.75 238.92,-112.42 236.65,-102.07 230.69,-105.75"/>
</a>
</g>
</g>
<!-- Node2&#45;&gt;Node3 -->
<g id="edge2_Node000002_Node000003" class="edge">
<title>Node2&#45;&gt;Node3</title>
<g id="a_edge2_Node000002_Node000003"><a xlink:title=" ">
<path fill="none" stroke="#63b8ff" d="M81.39,-223.46C66.22,-217.71 49.51,-211.38 37.28,-206.74"/>
<polygon fill="#63b8ff" stroke="#63b8ff" points="80.08,-226.71 90.68,-226.98 82.57,-220.16 80.08,-226.71"/>
</a>
</g>
</g>
<!-- Node7&#45;&gt;Node3 -->
<g id="edge7_Node000007_Node000003" class="edge">
<title>Node7&#45;&gt;Node3</title>
<g id="a_edge7_Node000007_Node000003"><a xlink:title=" ">
<path fill="none" stroke="#63b8ff" d="M75.73,-64.51C74.78,-65.3 73.87,-66.13 73,-67 37.34,-102.79 24.59,-165.45 20.84,-189.86"/>
<polygon fill="#63b8ff" stroke="#63b8ff" points="77.41,-67.59 83.81,-59.14 73.54,-61.75 77.41,-67.59"/>
</a>
</g>
</g>
</g>
</svg>
</svg>

<style type='text/css'>
<![CDATA[
[data-mouse-over-selected='false'] { opacity: 0.7; }
[data-mouse-over-selected='true']  { opacity: 1.0; }
]]>
</style>
<script type="application/ecmascript"><![CDATA[
document.addEventListener('DOMContentLoaded', (event) => {
  highlightEdges();
  highlightAdjacentNodes();
});
]]></script>
</svg>
