<?xml version="1.0" encoding="UTF-8" standalone="no"?>
<!DOCTYPE svg PUBLIC "-//W3C//DTD SVG 1.1//EN"
 "http://www.w3.org/Graphics/SVG/1.1/DTD/svg11.dtd">
<!-- Generated by graphviz version 11.0.0 (20240428.1522)
 -->
<!-- Title: MTEngine::randint Pages: 1 -->
<svg width="246pt" height="66pt"
 viewBox="0.00 0.00 246.25 66.00" xmlns="http://www.w3.org/2000/svg" xmlns:xlink="http://www.w3.org/1999/xlink">
<g id="graph0" class="graph" transform="scale(1 1) rotate(0) translate(4 62)">
<title>MTEngine::randint</title>
<!-- Node1 -->
<g id="Node000001" class="node">
<title>Node1</title>
<g id="a_Node000001"><a xlink:title=" ">
<polygon fill="#999999" stroke="#666666" points="94.75,-39 0,-39 0,-19 94.75,-19 94.75,-39"/>
<text text-anchor="middle" x="47.38" y="-25.5" font-family="Helvetica,sans-Serif" font-size="10.00">MTEngine::randint</text>
</a>
</g>
</g>
<!-- Node2 -->
<g id="Node000002" class="node">
<title>Node2</title>
<g id="a_Node000002"><a xlink:href="class_m_t_engine.html#a3d4592b65799d053b0a00f0d2a03599f" target="_top" xlink:title=" ">
<polygon fill="white" stroke="#666666" points="238.25,-58 130.75,-58 130.75,-38 238.25,-38 238.25,-58"/>
<text text-anchor="middle" x="184.5" y="-44.5" font-family="Helvetica,sans-Serif" font-size="10.00">MTEngine::sequence</text>
</a>
</g>
</g>
<!-- Node1&#45;&gt;Node2 -->
<g id="edge1_Node000001_Node000002" class="edge">
<title>Node1&#45;&gt;Node2</title>
<g id="a_edge1_Node000001_Node000002"><a xlink:title=" ">
<path fill="none" stroke="#63b8ff" d="M94.88,-35.54C102.75,-36.65 111.05,-37.81 119.28,-38.97"/>
<polygon fill="#63b8ff" stroke="#63b8ff" points="118.52,-42.4 128.91,-40.32 119.5,-35.47 118.52,-42.4"/>
</a>
</g>
</g>
<!-- Node3 -->
<g id="Node000003" class="node">
<title>Node3</title>
<g id="a_Node000003"><a xlink:href="class_m_t_engine.html#a7e5bc79070625240c2c64bfbe80b0dd9" target="_top" xlink:title=" ">
<polygon fill="white" stroke="#666666" points="231.88,-20 137.12,-20 137.12,0 231.88,0 231.88,-20"/>
<text text-anchor="middle" x="184.5" y="-6.5" font-family="Helvetica,sans-Serif" font-size="10.00">MTEngine::Shuffle</text>
</a>
</g>
</g>
<!-- Node1&#45;&gt;Node3 -->
<g id="edge2_Node000001_Node000003" class="edge">
<title>Node1&#45;&gt;Node3</title>
<g id="a_edge2_Node000001_Node000003"><a xlink:title=" ">
<path fill="none" stroke="#63b8ff" d="M94.88,-22.46C104.75,-21.07 115.29,-19.59 125.53,-18.15"/>
<polygon fill="#63b8ff" stroke="#63b8ff" points="126,-21.62 135.41,-16.76 125.02,-14.69 126,-21.62"/>
</a>
</g>
</g>
</g>
</svg>
