<?xml version="1.0" encoding="UTF-8" standalone="no"?>
<!DOCTYPE svg PUBLIC "-//W3C//DTD SVG 1.1//EN"
 "http://www.w3.org/Graphics/SVG/1.1/DTD/svg11.dtd">
<!-- Generated by graphviz version 11.0.0 (20240428.1522)
 -->
<!-- Title: Voronoi Pages: 1 -->
<svg width="210pt" height="256pt"
 viewBox="0.00 0.00 210.00 256.00" xmlns="http://www.w3.org/2000/svg" xmlns:xlink="http://www.w3.org/1999/xlink">
<g id="graph0" class="graph" transform="scale(1 1) rotate(0) translate(4 252)">
<title>Voronoi</title>
<!-- Node1 -->
<g id="Node000001" class="node">
<title>Node1</title>
<g id="a_Node000001"><a xlink:title="Represents a Voronoi diagram.">
<polygon fill="#999999" stroke="none" points="145,-148 47,-148 47,0 145,0 145,-148"/>
<text text-anchor="start" x="79.5" y="-134.5" font-family="Helvetica,sans-Serif" font-size="10.00">Voronoi</text>
<text text-anchor="start" x="94.5" y="-118.5" font-family="Helvetica,sans-Serif" font-size="10.00"> </text>
<text text-anchor="start" x="51" y="-102.5" font-family="Helvetica,sans-Serif" font-size="10.00">+</text>
<text text-anchor="start" x="61" y="-102.5" font-family="Helvetica,sans-Serif" font-size="10.00">Voronoi()</text>
<text text-anchor="start" x="51" y="-86.5" font-family="Helvetica,sans-Serif" font-size="10.00">+</text>
<text text-anchor="start" x="61" y="-86.5" font-family="Helvetica,sans-Serif" font-size="10.00">Nucleate()</text>
<text text-anchor="start" x="51" y="-70.5" font-family="Helvetica,sans-Serif" font-size="10.00">+</text>
<text text-anchor="start" x="61" y="-70.5" font-family="Helvetica,sans-Serif" font-size="10.00">Nucleate()</text>
<text text-anchor="start" x="51" y="-54.5" font-family="Helvetica,sans-Serif" font-size="10.00">+</text>
<text text-anchor="start" x="61" y="-54.5" font-family="Helvetica,sans-Serif" font-size="10.00">grow()</text>
<text text-anchor="start" x="51" y="-38.5" font-family="Helvetica,sans-Serif" font-size="10.00">+</text>
<text text-anchor="start" x="61" y="-38.5" font-family="Helvetica,sans-Serif" font-size="10.00">Grow()</text>
<text text-anchor="start" x="51" y="-22.5" font-family="Helvetica,sans-Serif" font-size="10.00">+</text>
<text text-anchor="start" x="61" y="-22.5" font-family="Helvetica,sans-Serif" font-size="10.00">WriteDataToCSV()</text>
<text text-anchor="start" x="51" y="-6.5" font-family="Helvetica,sans-Serif" font-size="10.00">+</text>
<text text-anchor="start" x="61" y="-6.5" font-family="Helvetica,sans-Serif" font-size="10.00">~Voronoi()</text>
<polygon fill="#666666" stroke="#666666" points="47,-130 47,-130 145,-130 145,-130 47,-130"/>
<polygon fill="#666666" stroke="#666666" points="47,-114 47,-114 145,-114 145,-114 47,-114"/>
<polygon fill="none" stroke="#666666" points="47,0 47,-148 145,-148 145,0 47,0"/>
</a>
</g>
</g>
<!-- Node2 -->
<g id="Node000002" class="node">
<title>Node2</title>
<g id="a_Node000002"><a xlink:title=" ">
<polygon fill="white" stroke="none" points="64,-248 0,-248 0,-196 64,-196 64,-248"/>
<text text-anchor="start" x="5" y="-234.5" font-family="Helvetica,sans-Serif" font-size="10.00">vector&lt; int &gt;</text>
<text text-anchor="start" x="30.5" y="-218.5" font-family="Helvetica,sans-Serif" font-size="10.00"> </text>
<text text-anchor="start" x="30.5" y="-202.5" font-family="Helvetica,sans-Serif" font-size="10.00"> </text>
<polygon fill="#666666" stroke="#666666" points="0,-230 0,-230 64,-230 64,-230 0,-230"/>
<polygon fill="#666666" stroke="#666666" points="0,-214 0,-214 64,-214 64,-214 0,-214"/>
<polygon fill="none" stroke="#666666" points="0,-196 0,-248 64,-248 64,-196 0,-196"/>
</a>
</g>
</g>
<!-- Node2&#45;&gt;Node1 -->
<g id="edge1_Node000001_Node000002" class="edge">
<title>Node2&#45;&gt;Node1</title>
<g id="a_edge1_Node000001_Node000002"><a xlink:title=" ">
<path fill="none" stroke="#63b8ff" d="M42.86,-196.23C47.44,-185.79 53.06,-172.96 58.92,-159.6"/>
<polygon fill="none" stroke="#63b8ff" points="58.92,-159.58 57.67,-152.48 63.74,-148.59 65,-155.69 58.92,-159.58"/>
</a>
</g>
<text text-anchor="middle" x="60.62" y="-168.5" font-family="Helvetica,sans-Serif" font-size="10.00" fill="grey"> +I</text>
</g>
<!-- Node3 -->
<g id="Node000003" class="node">
<title>Node3</title>
<g id="a_Node000003"><a xlink:title=" ">
<polygon fill="white" stroke="none" points="110,-248 82,-248 82,-196 110,-196 110,-248"/>
<text text-anchor="start" x="87" y="-234.5" font-family="Helvetica,sans-Serif" font-size="10.00">bool</text>
<text text-anchor="start" x="94.5" y="-218.5" font-family="Helvetica,sans-Serif" font-size="10.00"> </text>
<text text-anchor="start" x="94.5" y="-202.5" font-family="Helvetica,sans-Serif" font-size="10.00"> </text>
<polygon fill="#666666" stroke="#666666" points="82,-230 82,-230 110,-230 110,-230 82,-230"/>
<polygon fill="#666666" stroke="#666666" points="82,-214 82,-214 110,-214 110,-214 82,-214"/>
<polygon fill="none" stroke="#666666" points="82,-196 82,-248 110,-248 110,-196 82,-196"/>
</a>
</g>
</g>
<!-- Node3&#45;&gt;Node1 -->
<g id="edge2_Node000001_Node000003" class="edge">
<title>Node3&#45;&gt;Node1</title>
<g id="a_edge2_Node000001_Node000003"><a xlink:title=" ">
<path fill="none" stroke="#63b8ff" d="M96,-196.23C96,-186.1 96,-173.73 96,-160.81"/>
<polygon fill="none" stroke="#63b8ff" points="96,-160.66 92,-154.66 96,-148.66 100,-154.66 96,-160.66"/>
</a>
</g>
<text text-anchor="middle" x="118.12" y="-168.5" font-family="Helvetica,sans-Serif" font-size="10.00" fill="grey"> +allgrown</text>
</g>
<!-- Node4 -->
<g id="Node000004" class="node">
<title>Node4</title>
<g id="a_Node000004"><a xlink:title=" ">
<polygon fill="white" stroke="none" points="202,-248 128,-248 128,-196 202,-196 202,-248"/>
<text text-anchor="start" x="132.75" y="-234.5" font-family="Helvetica,sans-Serif" font-size="10.00">vector&lt; color &gt;</text>
<text text-anchor="start" x="163.5" y="-218.5" font-family="Helvetica,sans-Serif" font-size="10.00"> </text>
<text text-anchor="start" x="163.5" y="-202.5" font-family="Helvetica,sans-Serif" font-size="10.00"> </text>
<polygon fill="#666666" stroke="#666666" points="128,-230 128,-230 202,-230 202,-230 128,-230"/>
<polygon fill="#666666" stroke="#666666" points="128,-214 128,-214 202,-214 202,-214 128,-214"/>
<polygon fill="none" stroke="#666666" points="128,-196 128,-248 202,-248 202,-196 128,-196"/>
</a>
</g>
</g>
<!-- Node4&#45;&gt;Node1 -->
<g id="edge3_Node000001_Node000004" class="edge">
<title>Node4&#45;&gt;Node1</title>
<g id="a_edge3_Node000001_Node000004"><a xlink:title=" ">
<path fill="none" stroke="#63b8ff" d="M155.64,-196.14C151.91,-186.63 147.45,-175.73 143,-166 141.97,-163.76 140.92,-161.49 139.85,-159.21"/>
<polygon fill="none" stroke="#63b8ff" points="139.91,-159.34 133.71,-155.66 134.72,-148.52 140.93,-152.2 139.91,-159.34"/>
</a>
</g>
<text text-anchor="middle" x="165.62" y="-168.5" font-family="Helvetica,sans-Serif" font-size="10.00" fill="grey"> +colors</text>
</g>
</g>
</svg>
