<?xml version="1.0" encoding="UTF-8" standalone="no"?>
<!DOCTYPE svg PUBLIC "-//W3C//DTD SVG 1.1//EN"
 "http://www.w3.org/Graphics/SVG/1.1/DTD/svg11.dtd">
<!-- Generated by graphviz version 11.0.0 (20240428.1522)
 -->
<!-- Title: C:/Users/harshn/Desktop/VoronoiGrowthSimulator/example.cpp Pages: 1 -->
<svg width="595pt" height="220pt"
 viewBox="0.00 0.00 594.88 220.00" xmlns="http://www.w3.org/2000/svg" xmlns:xlink="http://www.w3.org/1999/xlink">
<g id="graph0" class="graph" transform="scale(1 1) rotate(0) translate(4 216)">
<title>C:/Users/harshn/Desktop/VoronoiGrowthSimulator/example.cpp</title>
<!-- Node1 -->
<g id="Node000001" class="node">
<title>Node1</title>
<g id="a_Node000001"><a xlink:title=" ">
<polygon fill="#999999" stroke="#666666" points="433.62,-212 308.12,-212 308.12,-168 433.62,-168 433.62,-212"/>
<text text-anchor="start" x="316.12" y="-198.5" font-family="Helvetica,sans-Serif" font-size="10.00">C:/Users/harshn/Desktop</text>
<text text-anchor="start" x="316.12" y="-186.5" font-family="Helvetica,sans-Serif" font-size="10.00">/VoronoiGrowthSimulator</text>
<text text-anchor="middle" x="370.88" y="-174.5" font-family="Helvetica,sans-Serif" font-size="10.00">/example.cpp</text>
</a>
</g>
</g>
<!-- Node2 -->
<g id="Node000002" class="node">
<title>Node2</title>
<g id="a_Node000002"><a xlink:href="_voronoi_8hpp.html" target="_top" xlink:title=" ">
<polygon fill="white" stroke="#666666" points="404.75,-132 337,-132 337,-112 404.75,-112 404.75,-132"/>
<text text-anchor="middle" x="370.88" y="-118.5" font-family="Helvetica,sans-Serif" font-size="10.00">Voronoi.hpp</text>
</a>
</g>
</g>
<!-- Node1&#45;&gt;Node2 -->
<g id="edge1_Node000001_Node000002" class="edge">
<title>Node1&#45;&gt;Node2</title>
<g id="a_edge1_Node000001_Node000002"><a xlink:title=" ">
<path fill="none" stroke="#63b8ff" d="M370.88,-167.75C370.88,-160.13 370.88,-151.53 370.88,-143.93"/>
<polygon fill="#63b8ff" stroke="#63b8ff" points="374.38,-143.93 370.88,-133.93 367.38,-143.93 374.38,-143.93"/>
</a>
</g>
</g>
<!-- Node3 -->
<g id="Node000003" class="node">
<title>Node3</title>
<g id="a_Node000003"><a xlink:title=" ">
<polygon fill="#e0e0e0" stroke="#999999" points="406.62,-20 365.12,-20 365.12,0 406.62,0 406.62,-20"/>
<text text-anchor="middle" x="385.88" y="-6.5" font-family="Helvetica,sans-Serif" font-size="10.00">vector</text>
</a>
</g>
</g>
<!-- Node2&#45;&gt;Node3 -->
<g id="edge2_Node000002_Node000003" class="edge">
<title>Node2&#45;&gt;Node3</title>
<g id="a_edge2_Node000002_Node000003"><a xlink:title=" ">
<path fill="none" stroke="#63b8ff" d="M372.15,-111.62C374.56,-94.01 379.79,-55.59 383.06,-31.65"/>
<polygon fill="#63b8ff" stroke="#63b8ff" points="386.51,-32.24 384.39,-21.85 379.58,-31.29 386.51,-32.24"/>
</a>
</g>
</g>
<!-- Node4 -->
<g id="Node000004" class="node">
<title>Node4</title>
<g id="a_Node000004"><a xlink:href="_m_t_engine_8hpp.html" target="_top" xlink:title=" ">
<polygon fill="white" stroke="#666666" points="325.25,-76 200.5,-76 200.5,-56 325.25,-56 325.25,-76"/>
<text text-anchor="middle" x="262.88" y="-62.5" font-family="Helvetica,sans-Serif" font-size="10.00">MTEngine/MTEngine.hpp</text>
</a>
</g>
</g>
<!-- Node2&#45;&gt;Node4 -->
<g id="edge3_Node000002_Node000004" class="edge">
<title>Node2&#45;&gt;Node4</title>
<g id="a_edge3_Node000002_Node000004"><a xlink:title=" ">
<path fill="none" stroke="#63b8ff" d="M352.06,-111.59C335.52,-103.32 311.16,-91.14 292.08,-81.6"/>
<polygon fill="#63b8ff" stroke="#63b8ff" points="293.7,-78.5 283.19,-77.16 290.57,-84.76 293.7,-78.5"/>
</a>
</g>
</g>
<!-- Node11 -->
<g id="Node000011" class="node">
<title>Node11</title>
<g id="a_Node000011"><a xlink:href="_print_utils_8hpp.html" target="_top" xlink:title="Contains utility functions for printing vectors and matrices.">
<polygon fill="white" stroke="#666666" points="516.5,-76 399.25,-76 399.25,-56 516.5,-56 516.5,-76"/>
<text text-anchor="middle" x="457.88" y="-62.5" font-family="Helvetica,sans-Serif" font-size="10.00">PrintUtils/PrintUtils.hpp</text>
</a>
</g>
</g>
<!-- Node2&#45;&gt;Node11 -->
<g id="edge11_Node000002_Node000011" class="edge">
<title>Node2&#45;&gt;Node11</title>
<g id="a_edge11_Node000002_Node000011"><a xlink:title=" ">
<path fill="none" stroke="#63b8ff" d="M386.03,-111.59C398.92,-103.59 417.71,-91.93 432.83,-82.54"/>
<polygon fill="#63b8ff" stroke="#63b8ff" points="434.67,-85.53 441.32,-77.28 430.97,-79.58 434.67,-85.53"/>
</a>
</g>
</g>
<!-- Node4&#45;&gt;Node3 -->
<g id="edge6_Node000004_Node000003" class="edge">
<title>Node4&#45;&gt;Node3</title>
<g id="a_edge6_Node000004_Node000003"><a xlink:title=" ">
<path fill="none" stroke="#63b8ff" d="M284.3,-55.59C303.61,-47.12 332.26,-34.54 354.22,-24.9"/>
<polygon fill="#63b8ff" stroke="#63b8ff" points="355.56,-28.13 363.31,-20.91 352.75,-21.72 355.56,-28.13"/>
</a>
</g>
</g>
<!-- Node5 -->
<g id="Node000005" class="node">
<title>Node5</title>
<g id="a_Node000005"><a xlink:title=" ">
<polygon fill="#e0e0e0" stroke="#999999" points="55.75,-20 0,-20 0,0 55.75,0 55.75,-20"/>
<text text-anchor="middle" x="27.88" y="-6.5" font-family="Helvetica,sans-Serif" font-size="10.00">algorithm</text>
</a>
</g>
</g>
<!-- Node4&#45;&gt;Node5 -->
<g id="edge4_Node000004_Node000005" class="edge">
<title>Node4&#45;&gt;Node5</title>
<g id="a_edge4_Node000004_Node000005"><a xlink:title=" ">
<path fill="none" stroke="#63b8ff" d="M220.35,-55.53C182.57,-47.07 125.58,-34.21 67.08,-20.49"/>
<polygon fill="#63b8ff" stroke="#63b8ff" points="68.16,-17.15 57.62,-18.27 66.55,-23.97 68.16,-17.15"/>
</a>
</g>
</g>
<!-- Node6 -->
<g id="Node000006" class="node">
<title>Node6</title>
<g id="a_Node000006"><a xlink:title=" ">
<polygon fill="#e0e0e0" stroke="#999999" points="122,-20 73.75,-20 73.75,0 122,0 122,-20"/>
<text text-anchor="middle" x="97.88" y="-6.5" font-family="Helvetica,sans-Serif" font-size="10.00">random</text>
</a>
</g>
</g>
<!-- Node4&#45;&gt;Node6 -->
<g id="edge5_Node000004_Node000006" class="edge">
<title>Node4&#45;&gt;Node6</title>
<g id="a_edge5_Node000004_Node000006"><a xlink:title=" ">
<path fill="none" stroke="#63b8ff" d="M234.13,-55.59C206.05,-46.4 163.25,-32.4 133.13,-22.54"/>
<polygon fill="#63b8ff" stroke="#63b8ff" points="134.29,-19.24 123.7,-19.45 132.11,-25.89 134.29,-19.24"/>
</a>
</g>
</g>
<!-- Node7 -->
<g id="Node000007" class="node">
<title>Node7</title>
<g id="a_Node000007"><a xlink:title=" ">
<polygon fill="#e0e0e0" stroke="#999999" points="185.5,-20 140.25,-20 140.25,0 185.5,0 185.5,-20"/>
<text text-anchor="middle" x="162.88" y="-6.5" font-family="Helvetica,sans-Serif" font-size="10.00">chrono</text>
</a>
</g>
</g>
<!-- Node4&#45;&gt;Node7 -->
<g id="edge7_Node000004_Node000007" class="edge">
<title>Node4&#45;&gt;Node7</title>
<g id="a_edge7_Node000004_Node000007"><a xlink:title=" ">
<path fill="none" stroke="#63b8ff" d="M245.46,-55.59C230.21,-47.36 207.8,-35.26 190.17,-25.74"/>
<polygon fill="#63b8ff" stroke="#63b8ff" points="192.22,-22.87 181.76,-21.2 188.9,-29.03 192.22,-22.87"/>
</a>
</g>
</g>
<!-- Node8 -->
<g id="Node000008" class="node">
<title>Node8</title>
<g id="a_Node000008"><a xlink:title=" ">
<polygon fill="#e0e0e0" stroke="#999999" points="462.75,-20 425,-20 425,0 462.75,0 462.75,-20"/>
<text text-anchor="middle" x="443.88" y="-6.5" font-family="Helvetica,sans-Serif" font-size="10.00">array</text>
</a>
</g>
</g>
<!-- Node4&#45;&gt;Node8 -->
<g id="edge8_Node000004_Node000008" class="edge">
<title>Node4&#45;&gt;Node8</title>
<g id="a_edge8_Node000004_Node000008"><a xlink:title=" ">
<path fill="none" stroke="#63b8ff" d="M295.78,-55.58C324.57,-47.28 367.77,-34.69 413.81,-20.58"/>
<polygon fill="#63b8ff" stroke="#63b8ff" points="414.64,-23.99 423.17,-17.71 412.58,-17.3 414.64,-23.99"/>
</a>
</g>
</g>
<!-- Node9 -->
<g id="Node000009" class="node">
<title>Node9</title>
<g id="a_Node000009"><a xlink:title=" ">
<polygon fill="#e0e0e0" stroke="#999999" points="256.62,-20 203.12,-20 203.12,0 256.62,0 256.62,-20"/>
<text text-anchor="middle" x="229.88" y="-6.5" font-family="Helvetica,sans-Serif" font-size="10.00">iostream</text>
</a>
</g>
</g>
<!-- Node4&#45;&gt;Node9 -->
<g id="edge9_Node000004_Node000009" class="edge">
<title>Node4&#45;&gt;Node9</title>
<g id="a_edge9_Node000004_Node000009"><a xlink:title=" ">
<path fill="none" stroke="#63b8ff" d="M257.13,-55.59C252.82,-48.55 246.78,-38.67 241.49,-30"/>
<polygon fill="#63b8ff" stroke="#63b8ff" points="244.55,-28.3 236.35,-21.59 238.57,-31.95 244.55,-28.3"/>
</a>
</g>
</g>
<!-- Node10 -->
<g id="Node000010" class="node">
<title>Node10</title>
<g id="a_Node000010"><a xlink:title=" ">
<polygon fill="#e0e0e0" stroke="#999999" points="347,-20 274.75,-20 274.75,0 347,0 347,-20"/>
<text text-anchor="middle" x="310.88" y="-6.5" font-family="Helvetica,sans-Serif" font-size="10.00">initializer_list</text>
</a>
</g>
</g>
<!-- Node4&#45;&gt;Node10 -->
<g id="edge10_Node000004_Node000010" class="edge">
<title>Node4&#45;&gt;Node10</title>
<g id="a_edge10_Node000004_Node000010"><a xlink:title=" ">
<path fill="none" stroke="#63b8ff" d="M271.24,-55.59C277.77,-48.24 287.06,-37.8 294.99,-28.87"/>
<polygon fill="#63b8ff" stroke="#63b8ff" points="297.58,-31.23 301.6,-21.43 292.34,-26.58 297.58,-31.23"/>
</a>
</g>
</g>
<!-- Node11&#45;&gt;Node3 -->
<g id="edge13_Node000011_Node000003" class="edge">
<title>Node11&#45;&gt;Node3</title>
<g id="a_edge13_Node000011_Node000003"><a xlink:title=" ">
<path fill="none" stroke="#63b8ff" d="M445.33,-55.59C434.91,-47.77 419.83,-36.46 407.46,-27.19"/>
<polygon fill="#63b8ff" stroke="#63b8ff" points="409.58,-24.41 399.48,-21.21 405.38,-30.01 409.58,-24.41"/>
</a>
</g>
</g>
<!-- Node11&#45;&gt;Node8 -->
<g id="edge14_Node000011_Node000008" class="edge">
<title>Node11&#45;&gt;Node8</title>
<g id="a_edge14_Node000011_Node000008"><a xlink:title=" ">
<path fill="none" stroke="#63b8ff" d="M455.44,-55.59C453.71,-48.93 451.33,-39.75 449.17,-31.44"/>
<polygon fill="#63b8ff" stroke="#63b8ff" points="452.56,-30.56 446.67,-21.76 445.79,-32.32 452.56,-30.56"/>
</a>
</g>
</g>
<!-- Node12 -->
<g id="Node000012" class="node">
<title>Node12</title>
<g id="a_Node000012"><a xlink:title=" ">
<polygon fill="#e0e0e0" stroke="#999999" points="586.88,-20 546.88,-20 546.88,0 586.88,0 586.88,-20"/>
<text text-anchor="middle" x="566.88" y="-6.5" font-family="Helvetica,sans-Serif" font-size="10.00">string</text>
</a>
</g>
</g>
<!-- Node11&#45;&gt;Node12 -->
<g id="edge12_Node000011_Node000012" class="edge">
<title>Node11&#45;&gt;Node12</title>
<g id="a_edge12_Node000011_Node000012"><a xlink:title=" ">
<path fill="none" stroke="#63b8ff" d="M476.86,-55.59C493.64,-47.28 518.37,-35.03 537.66,-25.47"/>
<polygon fill="#63b8ff" stroke="#63b8ff" points="538.98,-28.73 546.38,-21.15 535.87,-22.45 538.98,-28.73"/>
</a>
</g>
</g>
<!-- Node13 -->
<g id="Node000013" class="node">
<title>Node13</title>
<g id="a_Node000013"><a xlink:title=" ">
<polygon fill="#e0e0e0" stroke="#999999" points="529,-20 480.75,-20 480.75,0 529,0 529,-20"/>
<text text-anchor="middle" x="504.88" y="-6.5" font-family="Helvetica,sans-Serif" font-size="10.00">fstream</text>
</a>
</g>
</g>
<!-- Node11&#45;&gt;Node13 -->
<g id="edge15_Node000011_Node000013" class="edge">
<title>Node11&#45;&gt;Node13</title>
<g id="a_edge15_Node000011_Node000013"><a xlink:title=" ">
<path fill="none" stroke="#63b8ff" d="M466.06,-55.59C472.46,-48.24 481.55,-37.8 489.33,-28.87"/>
<polygon fill="#63b8ff" stroke="#63b8ff" points="491.86,-31.28 495.79,-21.44 486.58,-26.69 491.86,-31.28"/>
</a>
</g>
</g>
</g>
</svg>
