<?xml version="1.0" encoding="UTF-8" standalone="no"?>
<!DOCTYPE svg PUBLIC "-//W3C//DTD SVG 1.1//EN"
 "http://www.w3.org/Graphics/SVG/1.1/DTD/svg11.dtd">
<!-- Generated by graphviz version 11.0.0 (20240428.1522)
 -->
<!-- Title: main Pages: 1 -->
<svg width="451pt" height="123pt"
 viewBox="0.00 0.00 450.75 123.00" xmlns="http://www.w3.org/2000/svg" xmlns:xlink="http://www.w3.org/1999/xlink">

<svg id="main" version="1.1" xmlns="http://www.w3.org/2000/svg" xmlns:xlink="http://www.w3.org/1999/xlink" xml:space="preserve" onload="init(evt)">
<style type="text/css"><![CDATA[
.node, .edge {opacity: 0.7;}
.node.selected, .edge.selected {opacity: 1;}
.edge:hover path { stroke: red; }
.edge:hover polygon { stroke: red; fill: red; }
]]></style>
<script type="application/ecmascript" xlink:href="svg.min.js"/>
<svg id="graph" class="graph">
<g id="graph0" class="graph" transform="scale(1 1) rotate(0) translate(4 119)">
<title>main</title>
<!-- Node1 -->
<g id="Node000001" class="node">
<title>Node1</title>
<g id="a_Node000001"><a xlink:title=" ">
<polygon fill="#999999" stroke="#666666" points="37,-58 0,-58 0,-38 37,-38 37,-58"/>
<text text-anchor="middle" x="18.5" y="-44.5" font-family="Helvetica,sans-Serif" font-size="10.00">main</text>
</a>
</g>
</g>
<!-- Node2 -->
<g id="Node000002" class="node">
<title>Node2</title>
<g id="a_Node000002"><a xlink:href="class_voronoi.html#a92ae2843536051c81820658297e14893" target="_top" xlink:title="Grows the Voronoi diagram.">
<polygon fill="white" stroke="#666666" points="176.38,-96 98.88,-96 98.88,-76 176.38,-76 176.38,-96"/>
<text text-anchor="middle" x="137.62" y="-82.5" font-family="Helvetica,sans-Serif" font-size="10.00">Voronoi::Grow</text>
</a>
</g>
</g>
<!-- Node1&#45;&gt;Node2 -->
<g id="edge1_Node000001_Node000002" class="edge">
<title>Node1&#45;&gt;Node2</title>
<g id="a_edge1_Node000001_Node000002"><a xlink:title=" ">
<path fill="none" stroke="#63b8ff" d="M37.26,-54.56C47.63,-58.33 61.01,-63.08 73,-67 78.41,-68.77 84.1,-70.56 89.76,-72.3"/>
<polygon fill="#63b8ff" stroke="#63b8ff" points="88.49,-75.57 99.07,-75.13 90.52,-68.87 88.49,-75.57"/>
</a>
</g>
</g>
<!-- Node6 -->
<g id="Node000006" class="node">
<title>Node6</title>
<g id="a_Node000006"><a xlink:href="class_voronoi.html#a9d31c2d66610a6f6d67efdbd44619c85" target="_top" xlink:title="Nucleates the Voronoi diagram with the specified seed.">
<polygon fill="white" stroke="#666666" points="184.25,-58 91,-58 91,-38 184.25,-38 184.25,-58"/>
<text text-anchor="middle" x="137.62" y="-44.5" font-family="Helvetica,sans-Serif" font-size="10.00">Voronoi::Nucleate</text>
</a>
</g>
</g>
<!-- Node1&#45;&gt;Node6 -->
<g id="edge5_Node000001_Node000006" class="edge">
<title>Node1&#45;&gt;Node6</title>
<g id="a_edge5_Node000001_Node000006"><a xlink:title=" ">
<path fill="none" stroke="#63b8ff" d="M37.29,-48C48.67,-48 64.13,-48 79.46,-48"/>
<polygon fill="#63b8ff" stroke="#63b8ff" points="79.03,-51.5 89.03,-48 79.03,-44.5 79.03,-51.5"/>
</a>
</g>
</g>
<!-- Node7 -->
<g id="Node000007" class="node">
<title>Node7</title>
<g id="a_Node000007"><a xlink:href="class_voronoi.html#a96b301e09d1b4824fb6ea7399d115cc7" target="_top" xlink:title=" ">
<polygon fill="white" stroke="#666666" points="202.25,-20 73,-20 73,0 202.25,0 202.25,-20"/>
<text text-anchor="middle" x="137.62" y="-6.5" font-family="Helvetica,sans-Serif" font-size="10.00">Voronoi::WriteDataToCSV</text>
</a>
</g>
</g>
<!-- Node1&#45;&gt;Node7 -->
<g id="edge6_Node000001_Node000007" class="edge">
<title>Node1&#45;&gt;Node7</title>
<g id="a_edge6_Node000001_Node000007"><a xlink:title=" ">
<path fill="none" stroke="#63b8ff" d="M37.26,-41.44C47.63,-37.67 61.01,-32.92 73,-29 78.41,-27.23 84.1,-25.44 89.76,-23.7"/>
<polygon fill="#63b8ff" stroke="#63b8ff" points="90.52,-27.13 99.07,-20.87 88.49,-20.43 90.52,-27.13"/>
</a>
</g>
</g>
<!-- Node3 -->
<g id="Node000003" class="node">
<title>Node3</title>
<g id="a_Node000003"><a xlink:href="class_voronoi.html#a2d468827b1e880bf8797f5820fb3c982" target="_top" xlink:title="Grows the Voronoi diagram.">
<polygon fill="white" stroke="#666666" points="313.5,-96 238.25,-96 238.25,-76 313.5,-76 313.5,-96"/>
<text text-anchor="middle" x="275.88" y="-82.5" font-family="Helvetica,sans-Serif" font-size="10.00">Voronoi::grow</text>
</a>
</g>
</g>
<!-- Node2&#45;&gt;Node3 -->
<g id="edge2_Node000002_Node000003" class="edge">
<title>Node2&#45;&gt;Node3</title>
<g id="a_edge2_Node000002_Node000003"><a xlink:title=" ">
<path fill="none" stroke="#63b8ff" d="M176.58,-86C192.19,-86 210.45,-86 226.96,-86"/>
<polygon fill="#63b8ff" stroke="#63b8ff" points="226.55,-89.5 236.55,-86 226.55,-82.5 226.55,-89.5"/>
</a>
</g>
</g>
<!-- Node4 -->
<g id="Node000004" class="node">
<title>Node4</title>
<g id="a_Node000004"><a xlink:href="_voronoi_8cpp.html#ae7852a4f3cd5950cd215c04c566cd60f" target="_top" xlink:title=" ">
<polygon fill="white" stroke="#666666" points="427.75,-115 364.5,-115 364.5,-95 427.75,-95 427.75,-115"/>
<text text-anchor="middle" x="396.12" y="-101.5" font-family="Helvetica,sans-Serif" font-size="10.00">iscomplete</text>
</a>
</g>
</g>
<!-- Node3&#45;&gt;Node4 -->
<g id="edge3_Node000003_Node000004" class="edge">
<title>Node3&#45;&gt;Node4</title>
<g id="a_edge3_Node000003_Node000004"><a xlink:title=" ">
<path fill="none" stroke="#63b8ff" d="M313.97,-91.96C326.31,-93.94 340.14,-96.17 352.85,-98.21"/>
<polygon fill="#63b8ff" stroke="#63b8ff" points="352.2,-101.65 362.63,-99.78 353.31,-94.74 352.2,-101.65"/>
</a>
</g>
</g>
<!-- Node5 -->
<g id="Node000005" class="node">
<title>Node5</title>
<g id="a_Node000005"><a xlink:href="class_voronoi.html#a2526fecbfd0308bb83ad1e6d078cb09d" target="_top" xlink:title="Nucleates the Voronoi diagram with a random seed.">
<polygon fill="white" stroke="#666666" points="442.75,-77 349.5,-77 349.5,-57 442.75,-57 442.75,-77"/>
<text text-anchor="middle" x="396.12" y="-63.5" font-family="Helvetica,sans-Serif" font-size="10.00">Voronoi::Nucleate</text>
</a>
</g>
</g>
<!-- Node3&#45;&gt;Node5 -->
<g id="edge4_Node000003_Node000005" class="edge">
<title>Node3&#45;&gt;Node5</title>
<g id="a_edge4_Node000003_Node000005"><a xlink:title=" ">
<path fill="none" stroke="#63b8ff" d="M313.97,-80.04C321.52,-78.83 329.63,-77.52 337.69,-76.23"/>
<polygon fill="#63b8ff" stroke="#63b8ff" points="338.19,-79.69 347.51,-74.65 337.08,-72.78 338.19,-79.69"/>
</a>
</g>
</g>
</g>
</svg>
</svg>

<style type='text/css'>
<![CDATA[
[data-mouse-over-selected='false'] { opacity: 0.7; }
[data-mouse-over-selected='true']  { opacity: 1.0; }
]]>
</style>
<script type="application/ecmascript"><![CDATA[
document.addEventListener('DOMContentLoaded', (event) => {
  highlightEdges();
  highlightAdjacentNodes();
});
]]></script>
</svg>
