<?xml version="1.0" encoding="UTF-8" standalone="no"?>
<!DOCTYPE svg PUBLIC "-//W3C//DTD SVG 1.1//EN"
 "http://www.w3.org/Graphics/SVG/1.1/DTD/svg11.dtd">
<!-- Generated by graphviz version 11.0.0 (20240428.1522)
 -->
<!-- Title: color Pages: 1 -->
<svg width="46pt" height="184pt"
 viewBox="0.00 0.00 46.00 184.00" xmlns="http://www.w3.org/2000/svg" xmlns:xlink="http://www.w3.org/1999/xlink">
<g id="graph0" class="graph" transform="scale(1 1) rotate(0) translate(4 180)">
<title>color</title>
<!-- Node1 -->
<g id="Node000001" class="node">
<title>Node1</title>
<g id="a_Node000001"><a xlink:title="Represents a color with red, green, and blue components.">
<polygon fill="#999999" stroke="none" points="34.5,-52 3.5,-52 3.5,0 34.5,0 34.5,-52"/>
<text text-anchor="start" x="8.5" y="-38.5" font-family="Helvetica,sans-Serif" font-size="10.00">color</text>
<text text-anchor="start" x="17.5" y="-22.5" font-family="Helvetica,sans-Serif" font-size="10.00"> </text>
<text text-anchor="start" x="17.5" y="-6.5" font-family="Helvetica,sans-Serif" font-size="10.00"> </text>
<polygon fill="#666666" stroke="#666666" points="3.5,-34 3.5,-34 34.5,-34 34.5,-34 3.5,-34"/>
<polygon fill="#666666" stroke="#666666" points="3.5,-18 3.5,-18 34.5,-18 34.5,-18 3.5,-18"/>
<polygon fill="none" stroke="#666666" points="3.5,0 3.5,-52 34.5,-52 34.5,0 3.5,0"/>
</a>
</g>
</g>
<!-- Node2 -->
<g id="Node000002" class="node">
<title>Node2</title>
<g id="a_Node000002"><a xlink:title=" ">
<polygon fill="white" stroke="none" points="38,-176 0,-176 0,-124 38,-124 38,-176"/>
<text text-anchor="start" x="4.75" y="-162.5" font-family="Helvetica,sans-Serif" font-size="10.00">double</text>
<text text-anchor="start" x="17.5" y="-146.5" font-family="Helvetica,sans-Serif" font-size="10.00"> </text>
<text text-anchor="start" x="17.5" y="-130.5" font-family="Helvetica,sans-Serif" font-size="10.00"> </text>
<polygon fill="#666666" stroke="#666666" points="0,-158 0,-158 38,-158 38,-158 0,-158"/>
<polygon fill="#666666" stroke="#666666" points="0,-142 0,-142 38,-142 38,-142 0,-142"/>
<polygon fill="none" stroke="#666666" points="0,-124 0,-176 38,-176 38,-124 0,-124"/>
</a>
</g>
</g>
<!-- Node2&#45;&gt;Node1 -->
<g id="edge1_Node000001_Node000002" class="edge">
<title>Node2&#45;&gt;Node1</title>
<g id="a_edge1_Node000001_Node000002"><a xlink:title=" ">
<path fill="none" stroke="#63b8ff" d="M19,-124.02C19,-106.99 19,-84.14 19,-64.89"/>
<polygon fill="none" stroke="#63b8ff" points="19,-64.85 15,-58.85 19,-52.85 23,-58.85 19,-64.85"/>
</a>
</g>
<text text-anchor="middle" x="26.12" y="-96.5" font-family="Helvetica,sans-Serif" font-size="10.00" fill="grey"> +b</text>
<text text-anchor="middle" x="26.12" y="-84.5" font-family="Helvetica,sans-Serif" font-size="10.00" fill="grey">+g</text>
<text text-anchor="middle" x="26.12" y="-72.5" font-family="Helvetica,sans-Serif" font-size="10.00" fill="grey">+r</text>
</g>
</g>
</svg>
